<?xml version="1.0" encoding="UTF-8"?><svg id="a" xmlns="http://www.w3.org/2000/svg" width="14.13in" height="9.9in" viewBox="0 0 1017.09 713.03"><defs><style>.c{letter-spacing:-.07em;}.d,.e,.f{font-family:Brother-1816-Book, 'Brother 1816';}.d,.g{letter-spacing:-.06em;}.h{letter-spacing:-.08em;}.i{letter-spacing:-.14em;}.j{letter-spacing:-.03em;}.j,.k,.l,.g{font-family:Brother-1816-Light, 'Brother 1816';}.e{letter-spacing:-.06em;}.m{font-size:92.1px;}.m,.n{fill:#78a884;}.o{letter-spacing:-.05em;}.p{letter-spacing:-.07em;}.k{letter-spacing:-.06em;}.q,.r{fill:none;stroke:#c39974;stroke-miterlimit:10;stroke-width:5px;}.s{letter-spacing:-.07em;}.t{letter-spacing:-.05em;}.l{letter-spacing:-.04em;}.r{stroke-linecap:round;}.u{letter-spacing:-.05em;}.v{fill:#c39974;font-family:SofiaProCondensed-Light, 'Sofia Pro Condensed';font-size:63.51px;}.f{letter-spacing:-.1em;}</style></defs><path class="q" d="M405.7,289.35l-29.72,2.5-5.75,.48-26.9-2.15c-7.95-.64-15.87,.19-23.36,2.44l-49.67,14.91"/><path class="q" d="M349.79,264.23l3.06-22.67,3.18-21.17c.69-4.59,2.12-9.09,4.25-13.38h0c7.9-15.91,11.96-32.91,11.96-50.06v-35.62"/><path class="r" d="M468.33,515.31l18.72-28.29c5.91-8.93,10.06-18.89,12.24-29.37h0c3.94-18.9,6.36-38.08,7.25-57.37l.17-3.64c.63-13.69-2.17-27.32-8.15-39.65h0c-6.95-14.34-16.98-26.97-29.38-37l-4.98-4.02c-11.89-9.61-25.54-16.81-40.2-21.17l-35.59-10.6-12.02-4.85c-17.14-6.91-32.36-17.85-44.38-31.88l-7.17-8.38c-7.58-8.85-15.74-17.17-24.43-24.92h0c-6.37-5.68-14-9.76-22.26-11.9l-34.79-9.03"/><polyline class="r" points="531.65 514.7 531.65 225.17 531.65 59.22"/><path class="q" d="M531.65,307.41l-25.68-43.43c-5.6-9.47-9.27-19.95-10.82-30.84l-2.9-20.47c-.8-5.67-2.13-11.26-3.96-16.68l-10.3-30.53c-2.34-6.92-6.02-13.3-10.85-18.79l-13.81-15.69c-5.33-6.05-9.31-13.18-11.67-20.89l-5.64-18.41"/><path class="q" d="M531.65,307.41l25.68-43.43c5.6-9.47,9.27-19.95,10.82-30.84l2.9-20.47c.8-5.67,2.13-11.26,3.96-16.68l10.3-30.53c2.34-6.92,6.02-13.3,10.85-18.79l13.81-15.69c5.33-6.05,9.31-13.18,11.67-20.89l5.64-18.41"/><path class="q" d="M659.63,290.62l29.72,2.5,5.75,.48,26.9-2.15c7.95-.64,15.87,.19,23.36,2.44l49.67,14.91"/><path class="q" d="M715.84,265.28l-3.11-22.63-3.22-21.14c-.7-4.58-2.14-9.08-4.3-13.36h0c-8-15.89-12.12-32.86-12.12-49.99v-35.57"/><path class="r" d="M597,516.59l-18.72-28.29c-5.91-8.93-10.06-18.89-12.24-29.37h0c-3.94-18.9-6.36-38.08-7.25-57.37l-.17-3.64c-.63-13.69,2.17-27.32,8.15-39.65h0c6.95-14.34,16.98-26.97,29.38-37l4.98-4.02c11.89-9.61,25.54-16.81,40.2-21.17l35.59-10.6,12.02-4.85c17.14-6.91,32.36-17.85,44.38-31.88l7.17-8.38c7.58-8.85,15.74-17.17,24.43-24.92h0c6.37-5.68,14-9.76,22.26-11.9l34.79-9.03"/><text class="v" transform="translate(349.49 674.43)"><tspan class="h" x="0" y="0">W</tspan><tspan class="t" x="38.11" y="0">e G</tspan><tspan class="p" x="102" y="0">r</tspan><tspan class="o" x="116.04" y="0">o</tspan><tspan class="u" x="140.43" y="0">w</tspan><tspan class="s" x="174.54" y="0"> </tspan><tspan class="t" x="182.09" y="0">With</tspan><tspan class="c" x="266.95" y="0"> </tspan><tspan class="i" x="274.06" y="0">Y</tspan><tspan class="t" x="295.47" y="0">ou</tspan></text><text class="m" transform="translate(190.32 599.35)"><tspan class="f" x="0" y="0">F</tspan><tspan class="k" x="41.63" y="0">ore</tspan><tspan class="j" x="169.73" y="0">s</tspan><tspan class="k" x="207.49" y="0">t </tspan><tspan class="d" x="254.91" y="0">C</tspan><tspan class="g" x="312.01" y="0">i</tspan><tspan class="l" x="331.08" y="0">t</tspan><tspan class="g" x="361.01" y="0">y </tspan><tspan class="e" x="420.96" y="0">D</tspan><tspan class="g" x="482.48" y="0">esign</tspan></text><path class="n" d="M515.46,37.17c1.14,12.2,8.37,27.58,16.79,27.57,8.45,0,15.55-15.51,16.79-27.57C550.79,20.11,541.79,.15,532.8,0c-9.04-.15-18.96,19.79-17.34,37.17Z"/><path class="n" d="M547.34,78.28c-9.12,8.18-17.16,23.15-12.13,29.91,5.04,6.78,21.73,3.25,32.14-2.95,14.74-8.77,25.4-27.89,20.17-35.19-5.27-7.35-27.19-3.43-40.18,8.22Z"/><path class="n" d="M517.27,78.28c9.12,8.18,17.16,23.15,12.13,29.91-5.04,6.78-21.73,3.25-32.14-2.95-14.74-8.77-25.4-27.89-20.17-35.19,5.27-7.35,27.19-3.43,40.18,8.22Z"/><path class="n" d="M580.12,154.52c3.19,9.46,2.89,23.31-3.39,26.09-6.3,2.79-16.72-6.41-21.63-14.98-6.95-12.13-6.84-29.98-.2-33.06,6.69-3.1,20.67,8.47,25.21,21.95Z"/><path class="n" d="M600.1,164.19c-9.58,2.81-20.76,11-19.43,17.74,1.33,6.76,14.84,10.02,24.68,9.13,13.92-1.27,28.49-11.59,27.2-18.79-1.3-7.26-18.79-12.08-32.44-8.07Z"/><path class="n" d="M482.67,153.19c-3.19,9.46-2.89,23.31,3.39,26.09,6.3,2.79,16.72-6.41,21.63-14.98,6.95-12.13,6.84-29.98,.2-33.06-6.69-3.1-20.67,8.47-25.21,21.95Z"/><path class="n" d="M461.13,164.19c9.58,2.81,20.76,11,19.43,17.74-1.33,6.76-14.84,10.02-24.68,9.13-13.92-1.27-28.49-11.59-27.2-18.79,1.3-7.26,18.79-12.08,32.44-8.07Z"/><path class="n" d="M619.12,68.84c-3.26,11.81-1.96,28.75,5.92,31.73,7.91,2.99,20.04-8.99,25.47-19.82,7.68-15.33,6.34-37.19-2-40.51-8.4-3.34-24.74,11.78-29.39,28.6Z"/><path class="n" d="M445.42,68.84c3.26,11.81,1.96,28.75-5.92,31.73-7.91,2.99-20.04-8.99-25.47-19.82-7.68-15.33-6.34-37.19,2-40.51,8.4-3.34,24.74,11.78,29.39,28.6Z"/><path class="n" d="M360.53,171.78c4.36,8.98,5.81,22.76-.07,26.31-5.9,3.56-17.4-4.25-23.35-12.14-8.42-11.16-10.57-28.88-4.37-32.77,6.24-3.92,21.57,5.79,27.78,18.59Z"/><path class="n" d="M382.11,181.35c-9.15,4-19.2,13.53-17.04,20.05,2.17,6.54,15.99,8.07,25.63,5.94,13.65-3.01,26.8-15.09,24.61-22.08-2.2-7.04-20.16-9.61-33.2-3.91Z"/><path class="n" d="M389.09,99.86c-.98,12.21-8.01,27.68-16.44,27.78-8.45,.1-15.75-15.31-17.14-27.35-1.96-17.04,6.78-37.11,15.76-37.37,9.04-.26,19.21,19.54,17.81,36.94Z"/><path class="n" d="M304.81,312.61c3.55-9.33,12.58-19.84,19.19-18,6.64,1.85,8.84,15.57,7.18,25.31-2.34,13.78-13.76,27.5-20.85,25.66-7.14-1.85-10.59-19.67-5.53-32.97Z"/><path class="n" d="M295.4,288.78c9.19,3.91,23.02,4.69,26.28-1.35,3.27-6.07-5.09-17.17-13.26-22.73-11.56-7.87-29.36-9.15-32.95-2.76-3.61,6.43,6.84,21.27,19.93,26.84Z"/><path class="n" d="M269.24,206.15c9.85-1.64,23.48,.85,25.22,7.49,1.75,6.66-8.99,15.49-18.23,18.97-13.08,4.93-30.69,1.99-32.67-5.06-2-7.1,11.65-19.06,25.68-21.4Z"/><path class="n" d="M284.71,186.38c.56,9.97,5.99,22.71,12.85,22.96,6.89,.25,13.14-12.17,14.5-21.95,1.93-13.85-4.8-30.37-12.11-30.76-7.36-.39-16.04,15.55-15.24,29.76Z"/><path class="n" d="M231.48,166.81c10.19,6.79,20.29,20.46,16.28,27.87-4.02,7.43-21.04,6.32-32.23,1.68-15.84-6.57-29.13-23.97-24.99-31.94,4.17-8.03,26.42-7.29,40.94,2.39Z"/><path class="n" d="M253.8,335.07c-11.52,4.16-28.52,4.15-32.09-3.48-3.59-7.66,7.43-20.67,17.82-26.91,14.7-8.83,36.59-9.17,40.54-1.1,3.98,8.12-9.85,25.57-26.27,31.49Z"/><path class="n" d="M704.13,171.78c-4.36,8.98-5.81,22.76,.07,26.31,5.9,3.56,17.4-4.25,23.35-12.14,8.42-11.16,10.57-28.88,4.37-32.77-6.24-3.92-21.57,5.79-27.78,18.59Z"/><path class="n" d="M682.71,180.89c9.15,4,19.2,13.53,17.04,20.05-2.17,6.54-15.99,8.07-25.63,5.94-13.65-3.01-26.8-15.09-24.61-22.08,2.2-7.04,20.16-9.61,33.2-3.91Z"/><path class="n" d="M675.57,101.19c.98,12.21,8.01,27.68,16.44,27.78,8.45,.1,15.75-15.31,17.14-27.35,1.96-17.04-6.78-37.11-15.76-37.37-9.04-.26-19.21,19.54-17.81,36.94Z"/><path class="n" d="M759.85,313.94c-3.55-9.33-12.58-19.84-19.19-18-6.64,1.85-8.84,15.57-7.18,25.31,2.34,13.78,13.76,27.5,20.85,25.66,7.14-1.85,10.59-19.67,5.53-32.97Z"/><path class="n" d="M769.26,290.11c-9.19,3.91-23.02,4.69-26.28-1.35-3.27-6.07,5.09-17.17,13.26-22.73,11.56-7.87,29.36-9.15,32.95-2.76,3.61,6.43-6.84,21.27-19.93,26.84Z"/><path class="n" d="M795.42,207.49c-9.85-1.64-23.48,.85-25.22,7.49-1.75,6.66,8.99,15.49,18.23,18.97,13.08,4.93,30.69,1.99,32.67-5.06,2-7.1-11.65-19.06-25.68-21.4Z"/><path class="n" d="M781.9,187.33c-1.25,9.91-7.56,22.24-14.42,22.01-6.89-.23-12.25-13.06-12.93-22.91-.96-13.95,6.91-29.97,14.23-29.84,7.37,.12,14.91,16.63,13.13,30.75Z"/><path class="n" d="M831.65,170.64c-9.22,8.06-17.45,22.93-12.51,29.75,4.96,6.85,21.68,3.52,32.18-2.54,14.85-8.58,25.76-27.56,20.61-34.93-5.18-7.42-27.14-3.78-40.28,7.71Z"/><path class="n" d="M810.86,336.4c11.52,4.16,28.52,4.15,32.09-3.48,3.59-7.66-7.43-20.67-17.82-26.91-14.7-8.83-36.59-9.17-40.54-1.1-3.98,8.12,9.85,25.57,26.27,31.49Z"/></svg>