<?xml version="1.0" encoding="UTF-8"?><svg id="a" xmlns="http://www.w3.org/2000/svg" width="1762.26" height="1449.66" viewBox="0 0 1762.26 1449.66"><defs><style>.b{letter-spacing:-.07em;}.c{stroke-width:70px;}.c,.d,.e,.f{fill:none;stroke:#326b84;stroke-miterlimit:10;}.g{letter-spacing:-.01em;}.h{fill:#306c84;font-family:CooperBlack, 'Cooper Black';font-size:229px;}.e{stroke-width:29px;}.i{fill:#326b84;}.f{stroke-width:2px;}</style></defs><circle class="c" cx="754.01" cy="604.86" r="368.36"/><circle class="e" cx="754.01" cy="604.86" r="267.93"/><path class="e" d="M904.59,598.01c10.09,9.44,22.87,10.55,32.07,6.85,1.57-.63,3.4-.66,6.52-4.84l.15-.26c5.49-9.49,12.9-17.72,21.75-24.19h0c12.91-9.43,28.81-13.84,44.74-12.39,1.2,.11,2.4,.22,3.6,.33"/><path class="e" d="M487.33,619.61c8.86-14.55,20.34-27.32,33.87-37.67l1.4-1.07,16.37-12.4c3.23-2.45,6.68-4.59,10.31-6.41h0c6.57-3.28,13.81-4.99,21.15-4.99h8.52c7.64,0,15.03,2.73,20.83,7.7l6.11,5.23c7.94,6.8,15.35,14.2,22.16,22.13l.3,.35c11.62,13.51,25.76,24.63,41.64,32.72l1.09,.56c11.52,5.88,24.97,6.67,37.11,2.19l.47-.17c7.89-2.92,14.72-8.15,19.58-15.01,9.3-13.12,24.01-33.83,24.01-33.83l10.8-14.69c3.52-4.79,7.18-9.47,10.98-14.03l.48-.58c8.46-10.17,20.14-17.14,33.1-19.75l.99-.2c13.61-2.74,27.68-2.02,40.94,2.08l.35,.11c4.27,1.32,8.02,3.94,10.74,7.49l1.19,1.56c11.43,16.53,19.51,28.76,25.31,37.72,2.59,4.01,5.91,9.22,11.9,14.76,7.64,7.07,15.61,10.98,21.23,13.19"/><ellipse class="i" cx="593.58" cy="668.88" rx="83.31" ry="121.54" transform="translate(-299.12 615.63) rotate(-45)"/><ellipse class="i" cx="817.75" cy="651.65" rx="86.84" ry="118.34"/><ellipse class="i" cx="750.45" cy="743.73" rx="150.31" ry="122.77" transform="translate(-25.94 27.12) rotate(-2.03)"/><ellipse class="i" cx="965.78" cy="670.46" rx="112.1" ry="56.09" transform="translate(58.49 1418.17) rotate(-74.26)"/><ellipse class="i" cx="883.7" cy="714.46" rx="77.84" ry="112.57"/><ellipse class="i" cx="617.41" cy="773.75" rx="43.55" ry="121.52" transform="translate(-372.43 763.52) rotate(-50.82)"/><ellipse class="i" cx="852.57" cy="840.37" rx="38.19" ry="21.01" transform="translate(-305.96 538.87) rotate(-30)"/><circle class="f" cx="669.06" cy="479.88" r="34.73"/><circle class="d" cx="678.39" cy="462.83" r="6.75"/><circle class="f" cx="767.27" cy="397.33" r="22.03"/><circle class="d" cx="763.81" cy="385.51" r="4.28"/><circle class="f" cx="920.26" cy="511.28" r="22.03"/><circle class="d" cx="931.68" cy="506.64" r="4.28"/><circle class="f" cx="549.35" cy="514.61" r="13.97"/><circle class="d" cx="547.16" cy="507.11" r="2.72"/><circle class="f" cx="689.94" cy="567.89" r="11.55"/><circle class="d" cx="694" cy="562.87" r="2.25"/><circle class="f" cx="794.32" cy="456.69" r="11.55"/><circle class="d" cx="793.93" cy="450.24" r="2.25"/><circle class="f" cx="685.15" cy="391.86" r="11.55"/><circle class="d" cx="681.66" cy="386.42" r="2.25"/><path class="f" d="M859.01,445.56c-8.67-6.11-10.75-18.09-4.64-26.76,6.11-8.67,18.09-10.75,26.76-4.64"/><path class="f" d="M881.13,414.16c8.67,6.11,10.75,18.09,4.64,26.76s-18.09,10.75-26.76,4.64"/><circle class="d" cx="860.43" cy="434.59" r="3.73"/><g><path class="i" d="M316.86,140.13v51.32c0,11.56,.96,18.65,2.92,21.13,2.31,2.94,7.39,2.81,15.06-.29,8.25-3.34,14.8-7.73,19.6-13.3,4.8-5.56,8.22-12.67,10.06-21.23,1.12-5.21,3.58-8.6,7.45-10,3.88-1.41,7.05-.76,9.5,1.91,2.46,2.67,3.69,6.85,3.69,12.52,0,11.88-5.32,22.7-10.12,33.22-2.12,4.12-3.99,7.09-5.6,8.91-1.61,1.82-3.55,3.15-5.81,3.99-9.72,2.41-14.57,3.67-24.22,6.32-25.4,10.29-50.4,21.36-75.1,33.24-4.88,2.38-8.31,3.48-10.27,3.28-2.87-.28-4.33-2.11-4.33-5.54,0-2.09,.47-3.87,1.42-5.36,.95-1.49,3.25-4.1,6.92-7.76,4.01-4,6.62-8.1,7.74-12.29,.93-3.49,1.39-12.64,1.38-27.39,0-9.79-.27-19.6-.53-29.37-.33-12.18-.6-21.45-.64-27.65-.03-5.93-.44-9.83-1.33-11.6-.88-1.77-2.74-2.45-5.56-2.02-4.66,.59-7.61,.7-8.88,.3-2.25-.72-3.37-2.27-3.37-4.66,0-5.44,4.24-11.79,12.78-18.82,8.83-7.27,19.03-12.92,29.38-17.66,9.98-4.57,20.51-9.22,31.19-11.46,8.79-1.84,13.43,.49,13.43,6.53,0,2.46-.6,4.53-1.79,6.21-1.19,1.68-4.11,4.47-8.72,8.41-2.74,2.41-4.47,5.31-5.19,8.67-.72,3.36-1.08,10.19-1.08,20.47Z"/><path class="i" d="M451.26,85.26c10.42-3.34,22.71-3.69,33.07,1.12,4.8,2.32,8.16,5.53,10.07,9.58,1.91,4.06,2.87,10.04,2.87,17.94-.09,6.69-.14,10.03-.23,16.71,0,11.56,.83,18.85,2.48,21.9,.83,1.45,1.62,2.31,2.37,2.58,.75,.27,2.33,.32,4.74,.15,2.41-.17,3.61,1.13,3.61,3.89,0,3.58-1.45,7.63-4.35,12.15-2.9,4.53-6.67,8.63-11.22,12.32-5.63,4.57-11.52,7.7-17.66,9.26-7.86,2-14.06,.98-18.61-3.15-1.57-1.51-3.02-2.08-4.36-1.71-1.49,.41-3.47,1.9-5.92,4.46-6.35,6.86-16.41,13.03-25.28,15.65-9.61,2.84-17.52,3.47-23.49,1.29-3.9-1.45-6.99-4-9.27-7.65-2.28-3.65-3.42-7.9-3.42-12.74,0-7.75,3.08-15.69,9.26-23.74,10.34-14.06,27.07-23.09,43.49-27.88,4.31-1.26,7.03-2.46,8.15-3.63,1.12-1.17,1.68-3.33,1.68-6.46,0-7.9-.82-13.39-2.46-16.47-1.64-3.07-4.32-4.08-8.03-2.99-2.23,.65-4.22,1.91-5.96,3.78-1.74,1.86-3.91,4.98-6.51,9.35-5.33,7.93-10.97,17.49-20.63,20.73-3.58,1.2-6.56,1.08-8.84-.31-2.28-1.39-3.42-3.84-3.42-7.34s1.41-7.64,4.25-12.17c2.83-4.53,6.68-8.94,11.56-13.2,13.37-10.44,26.28-18.36,42.06-23.42Zm-7.48,66.87c-3.24,.88-6.12,3.12-8.53,6.52-2.41,3.4-3.62,6.97-3.62,10.7s.85,6.21,2.56,7.9c1.71,1.69,3.97,2.12,6.8,1.3,5.95-1.73,8.93-7.59,8.93-17.65,0-4.1-.43-6.74-1.28-7.91-.85-1.17-2.52-1.49-4.86-.85Z"/><path class="i" d="M655.89,89.57c.54,13.07,1.07,26.15,1.61,39.22,.15,2.97,.63,5.13,1.43,6.48,.8,1.35,3.16,3.87,7.06,7.6,1.15,1.11,1.72,2.74,1.72,4.9,0,4.92-3.08,8.7-9.07,11-10.02,3.86-21.59,4.9-32.32,6.07-10.5,1.15-17.97,1.27-22.3,.06-4.49-1.26-6.74-3.96-6.74-8.14,0-1.49,.23-2.62,.69-3.39,.46-.77,2.35-2.77,4.57-5.82,5.78-7.94,4.45-22.12,4.57-31.91,.12-10.16-1.21-17.75-3.66-22.33-1.97-3.68-5.64-5.17-10.96-4.41-5.1,.73-8.6,2.87-10.49,6.37-1.9,3.5-2.85,9.46-2.85,17.88,0,8.86,0,13.28,0,22.14,0,4.4,.29,7.37,.86,8.92,.57,1.55,2.45,4.43,5.64,8.64,.84,1.22,1.26,2.68,1.26,4.4,0,4.4-3.14,8.16-9.35,11.16-9.01,4.36-19.6,6.44-29.12,8.12-7.46,1.32-30.75,5.94-31.5-6.55-.1-1.68,.32-3.22,.96-4.29,.64-1.07,2.18-2.72,4.58-4.94,1.96-1.82,3.21-3.71,3.73-5.64,.53-1.93,1.02-6.53,1.47-13.78,.53-8.6,.79-17.57,.79-26.89,0-5.14-.4-8.43-1.19-9.88-.79-1.44-3.09-2.92-6.85-4.44-3.24-1.31-4.86-3.43-4.86-6.34s1.32-5.71,3.96-8.17c2.64-2.46,8.07-6.04,16.31-10.55,7.24-3.97,14.26-7.41,21-10.36,6.74-2.95,11.38-4.59,13.88-5,2.28-.37,4.2,.14,5.75,1.53,1.56,1.39,2.34,3.21,2.34,5.45,0,.22,.02,1.23-.11,2.81-.05,.59-.11,1.14-.11,1.58,0,3.58,1.52,5.13,4.56,4.66,1.82-.28,3.76-1.98,5.82-5.12,6.31-10.04,16.88-16.35,28.56-17.69,9.56-1.1,17.86,.43,24.73,4.68,4.81,3.03,8.18,6.85,10.09,11.41,1.91,4.56,3.1,11.41,3.56,20.54Z"/><path class="i" d="M808.78,13.5c0,34.03,0,68.06,0,102.09,0,5.81,.25,9.56,.75,11.22,.5,1.67,1.9,3.35,4.19,5.04,2.75,2.02,4.61,3.78,5.57,5.25,.96,1.47,1.44,3.22,1.44,5.23,0,5.96-6.36,10.37-18.5,12.62-10.83,2.01-22.12,3.33-33.35,3.08-2.44-.05-4.05-.41-4.77-1.13-.73-.72-1.19-2.44-1.44-5.1-.35-3.78-1.77-5.72-4.14-5.74-1.31,0-3.34,1.1-6.1,3.33-6.61,5.68-17.56,9.5-26.11,9.54-11.55,.06-23.18-4-32.08-11.7-5.59-4.86-10.1-10.57-13.56-17.01-4.52-8.41-6.78-17.21-6.89-26.04-.14-11.23,4-21.41,8.96-31,4.43-8.57,13.9-17.39,22.52-21.94,7.92-4.18,15.83-6.6,23.57-6.75,8.89-.17,16.87,1.72,23.93,5.61,1.15,.6,2.07,.9,2.76,.9,2.45,.01,3.68-3.18,3.68-9.59,0-2.76-.67-4.87-2.01-6.33-1.34-1.46-3.75-2.72-7.19-3.77-4.82-1.47-7.25-4.07-7.25-7.8,0-5.44,5.64-9.9,16.68-12.74,12.74-3.27,26.4-7.17,39.45-6.92,6.43,.12,9.88,3.53,9.88,9.64Zm-62.44,54.72c-4.89-.07-8.92,2.68-11.85,7.82-4.31,7.57-6.04,18.74-5.87,27.16,.2,9.93,1.91,17.74,5.64,22.83,2.69,3.67,6.33,5.51,10.93,5.49,4.98-.02,8.61-2.82,10.87-8.44,2.26-5.62,3.39-14.68,3.39-27.21,0-11.48-1.37-19.14-4.03-22.95-2.07-2.97-5.17-4.64-9.09-4.7Z"/><path class="i" d="M898.42,54.07c13.1,1.31,26.26,7.61,36.61,16.17,7.07,5.85,13.98,14.93,18.07,22.99,4,7.87,6.93,19.14,7.04,27.94,.19,15.43-9.61,29.35-22.61,37.15-14.63,8.78-33.02,10.66-49.62,8.88-16.22-1.75-32.38-8.71-44.33-19.84-10.87-10.12-16.53-25.23-16.53-39.73,0-15.75,6.92-32.22,20.2-41.58,15.7-11.06,33.02-13.8,51.18-11.99Zm-9.14,24.64c-3.29-.47-6.04,.47-8.06,2.65-2.02,2.18-3.03,5.29-3.03,9.32,0,4.47,.86,10.66,2.57,18.58,1.72,7.92,3.79,15.02,6.12,21.26,2.38,6.37,6.21,9.94,11.54,10.66,6.78,.91,10.16-2.8,10.16-11.22,0-6.26-.86-13.5-2.57-21.72-1.71-8.22-3.78-15.02-6.22-20.32-2.49-5.4-6.08-8.57-10.51-9.2Z"/><path class="i" d="M1104.13,143.42c.52,13.29,1.03,26.59,1.55,39.88,.15,3.03,.61,5.39,1.38,7.06,.77,1.68,3.04,5.17,6.78,10.49,1.1,1.58,1.65,3.44,1.65,5.61,0,4.92-3.02,7.45-8.71,7.29-10.37-.28-21.23-4.07-31.23-7.18-10.18-3.16-17.49-6.1-21.72-9.1-4.39-3.11-6.59-6.73-6.59-10.91,0-1.49,.22-2.53,.67-3.11,.45-.58,2.74-1.93,4.47-3.95,5.49-6.41,4.35-20.12,4.47-30.04,.12-10.17-1.18-18.25-3.57-23.83-1.92-4.49-5.51-7.49-10.73-8.91-5-1.36-8.44-.66-10.31,2.05-1.87,2.71-2.8,8.29-2.8,16.71v22.14c0,4.4,.28,7.49,.84,9.28,.56,1.79,2.41,5.43,5.55,10.97,.82,1.56,1.23,3.2,1.23,4.91,0,4.4-3.13,6.89-9.19,7.31-9.51,.65-19.53-1.94-28.8-3.9-10.41-2.19-30.63-7.08-31.43-19.61-.11-1.67,.32-3.08,.96-3.89,.64-.8,2.19-1.81,4.59-3.04,1.96-1,3.21-2.38,3.74-4.09,.53-1.71,1.02-6.11,1.47-13.17,.53-8.38,.79-17.24,.79-26.56,0-5.14-.4-8.6-1.19-10.37-.79-1.77-3.09-4.2-6.85-7.28-3.25-2.66-4.87-5.45-4.87-8.36s1.32-5.16,3.97-6.53c2.64-1.37,8.09-2.69,16.29-3.79,7.22-.97,14.19-1.51,20.87-1.67,6.68-.16,11.25,.11,13.72,.73,2.25,.57,4.14,1.87,5.67,3.9,1.53,2.03,2.3,4.17,2.3,6.41,0,.22,.02,1.22-.11,2.77-.05,.56-.11,1.09-.11,1.54,0,3.58,1.5,5.75,4.49,6.54,1.79,.47,3.7-.44,5.71-2.73,6.93-8.22,18.43-8.78,27.92-5.95,8.23,2.45,18.12,8.18,23.99,14.82,4.65,5.01,7.89,10.2,9.74,15.55,1.84,5.35,2.98,12.68,3.42,22Z"/><path class="i" d="M1135.35,68.91c7.72,2.81,14.07,8.4,19.01,16.51,4.35,7.15,6.53,14.51,6.53,22.03,0,8.95-2.23,17.16-6.69,24.7-4.47,7.53-10.7,13.64-18.74,18.42-4.45,2.6-8.62,3.21-12.51,1.83-2.64-.94-5-2.5-7.09-4.68-2.09-2.18-3.14-4.2-3.14-6.07,0-1.12,.73-2.13,2.2-3.04,4.7-3.29,7.98-6.19,9.84-8.77,1.87-2.57,2.8-5.53,2.8-8.89,0-2.38-1.24-4.96-3.73-7.72-4.61-5.38-7.9-10.1-9.84-14.2-1.94-4.1-2.92-8.5-2.92-13.2,0-7.38,2.3-12.69,6.88-15.89,4.58-3.2,10.44-3.59,17.4-1.05Z"/><path class="i" d="M1201.91,140.3c3.5,1.62,9.41,5.03,17.45,10.42,1.64,1.06,2.99,1.85,4.05,2.35,1.21,.57,3.55,1,7.03,1.33,1.63,.11,3.01,.44,4.14,.99,3.25,1.58,6.53,5.41,9.85,11.44,2.66,4.83,4.86,9.77,6.55,14.8,1.69,5.03,2.53,9.07,2.53,12.13s-.98,4.96-2.95,5.94c-1.97,.98-4.43,.73-7.4-.74-2.47-1.22-4.68-2.94-6.62-5.16-1.94-2.22-5.11-6.54-9.4-12.92-4.55-6.75-8.31-10.85-11.3-12.24-2-.92-3.73-.95-5.19-.09-1.46,.86-2.2,2.34-2.2,4.42,0,3.65,3.36,8.59,10.05,14.91,10.08,9.91,19.83,19.95,27.51,31.83,5.36,8.3,8.02,16.64,8.02,24.84,0,10.36-4.35,16.76-12.89,19.48-8.28,2.64-20.1-.36-27.35-3.97-2.65-1.32-7.86-4.15-15.22-8.32-6.9-3.91-10.87-5.96-11.74-6.33-.94-.4-2.04-.73-3.24-1.04-2.06-.54-3.6-1.07-4.54-1.47-3.39-1.42-6.06-3.42-8.01-6-2.96-3.97-5.71-9.43-8.25-16.37-2.54-6.94-3.81-12.53-3.81-16.78,0-6.86,2.61-9.26,7.82-7.15,2.03,.82,3.89,2.27,5.59,4.35,1.7,2.08,5.26,7.21,10.66,15.46,2.95,4.53,5.4,7.84,7.34,9.9,1.94,2.07,4.02,3.59,6.24,4.57,2.37,1.04,4.26,1.23,5.7,.57,1.43-.67,2.15-2.08,2.15-4.24,0-3.35-2.75-7.66-8.27-12.84-9.13-9-18.32-18.02-25.11-28.88-5.19-8.3-7.76-16.64-7.76-24.84,0-8.87,2.65-15.46,7.92-19.71,8.88-7.06,21.17-5.04,30.64-.65Z"/></g><text class="h" transform="translate(0 1194.74)"><tspan class="b" x="0" y="0">	</tspan><tspan x="41.22" y="0">Laund</tspan><tspan class="g" x="773.73" y="0">r</tspan><tspan x="893.26" y="0">omat</tspan></text></svg>