<?xml version="1.0" encoding="UTF-8"?>
<svg id="Layer_2" data-name="Layer 2" xmlns="http://www.w3.org/2000/svg" viewBox="0 0 848.9 743.23">
  <path d="M292.89,311.22l-29.72,2.5-5.75,.48-26.9-2.15c-7.95-.64-15.87,.19-23.36,2.44l-49.67,14.91" style="fill: none; stroke: #d1d3d4; stroke-linecap: round; stroke-miterlimit: 10; stroke-width: 5px;"/>
  <path d="M236.97,286.1l3.06-22.67,3.18-21.17c.69-4.59,2.12-9.09,4.25-13.38h0c7.9-15.91,11.96-32.91,11.96-50.06v-35.62" style="fill: none; stroke: #d1d3d4; stroke-linecap: round; stroke-miterlimit: 10; stroke-width: 5px;"/>
  <path d="M355.51,537.18l18.72-28.29c5.91-8.93,10.06-18.89,12.24-29.37h0c3.94-18.9,6.36-38.08,7.25-57.37l.17-3.64c.63-13.69-2.17-27.32-8.15-39.65h0c-6.95-14.34-16.98-26.97-29.38-37l-4.98-4.02c-11.89-9.61-25.54-16.81-40.2-21.17l-35.59-10.6-12.02-4.85c-17.14-6.91-32.36-17.85-44.38-31.88l-7.17-8.38c-7.58-8.85-15.74-17.17-24.43-24.92h0c-6.37-5.68-14-9.76-22.26-11.9l-34.79-9.03" style="fill: none; stroke: #d1d3d4; stroke-linecap: round; stroke-miterlimit: 10; stroke-width: 5px;"/>
  <polyline points="418.84 536.57 418.84 247.05 418.84 81.09" style="fill: none; stroke: #d1d3d4; stroke-linecap: round; stroke-miterlimit: 10; stroke-width: 5px;"/>
  <path d="M418.84,329.28l-25.68-43.43c-5.6-9.47-9.27-19.95-10.82-30.84l-2.9-20.47c-.8-5.67-2.13-11.26-3.96-16.68l-10.3-30.53c-2.34-6.92-6.02-13.3-10.85-18.79l-13.81-15.69c-5.33-6.05-9.31-13.18-11.67-20.89l-5.64-18.41" style="fill: none; stroke: #d1d3d4; stroke-linecap: round; stroke-miterlimit: 10; stroke-width: 5px;"/>
  <path d="M418.84,329.28l25.68-43.43c5.6-9.47,9.27-19.95,10.82-30.84l2.9-20.47c.8-5.67,2.13-11.26,3.96-16.68l10.3-30.53c2.34-6.92,6.02-13.3,10.85-18.79l13.81-15.69c5.33-6.05,9.31-13.18,11.67-20.89l5.64-18.41" style="fill: none; stroke: #d1d3d4; stroke-linecap: round; stroke-miterlimit: 10; stroke-width: 5px;"/>
  <path d="M546.81,312.5l29.72,2.5,5.75,.48,26.9-2.15c7.95-.64,15.87,.19,23.36,2.44l49.67,14.91" style="fill: none; stroke: #d1d3d4; stroke-linecap: round; stroke-miterlimit: 10; stroke-width: 5px;"/>
  <path d="M603.02,287.15l-3.11-22.63-3.22-21.14c-.7-4.58-2.14-9.08-4.3-13.36h0c-8-15.89-12.12-32.86-12.12-49.99v-35.57" style="fill: none; stroke: #d1d3d4; stroke-linecap: round; stroke-miterlimit: 10; stroke-width: 5px;"/>
  <path d="M484.18,538.46l-18.72-28.29c-5.91-8.93-10.06-18.89-12.24-29.37h0c-3.94-18.9-6.36-38.08-7.25-57.37l-.17-3.64c-.63-13.69,2.17-27.32,8.15-39.65h0c6.95-14.34,16.98-26.97,29.38-37l4.98-4.02c11.89-9.61,25.54-16.81,40.2-21.17l35.59-10.6,12.02-4.85c17.14-6.91,32.36-17.85,44.38-31.88l7.17-8.38c7.58-8.85,15.74-17.17,24.43-24.92h0c6.37-5.68,14-9.76,22.26-11.9l34.79-9.03" style="fill: none; stroke: #d1d3d4; stroke-linecap: round; stroke-miterlimit: 10; stroke-width: 5px;"/>
  <path d="M402.65,59.04c1.14,12.2,8.37,27.58,16.79,27.57,8.45,0,15.55-15.51,16.79-27.57,1.75-17.06-7.25-37.02-16.24-37.17-9.04-.15-18.96,19.79-17.34,37.17Z" style="fill: none; stroke: #d1d3d4; stroke-linecap: round; stroke-miterlimit: 10; stroke-width: 5px;"/>
  <path d="M434.52,100.15c-9.12,8.18-17.16,23.15-12.13,29.91,5.04,6.78,21.73,3.25,32.14-2.95,14.74-8.77,25.4-27.89,20.17-35.19-5.27-7.35-27.19-3.43-40.18,8.22Z" style="fill: none; stroke: #d1d3d4; stroke-linecap: round; stroke-miterlimit: 10; stroke-width: 5px;"/>
  <path d="M404.45,100.15c9.12,8.18,17.16,23.15,12.13,29.91-5.04,6.78-21.73,3.25-32.14-2.95-14.74-8.77-25.4-27.89-20.17-35.19,5.27-7.35,27.19-3.43,40.18,8.22Z" style="fill: none; stroke: #d1d3d4; stroke-linecap: round; stroke-miterlimit: 10; stroke-width: 5px;"/>
  <path d="M467.3,176.39c3.19,9.46,2.89,23.31-3.39,26.09-6.3,2.79-16.72-6.41-21.63-14.98-6.95-12.13-6.84-29.98-.2-33.06,6.69-3.1,20.67,8.47,25.21,21.95Z" style="fill: none; stroke: #d1d3d4; stroke-linecap: round; stroke-miterlimit: 10; stroke-width: 5px;"/>
  <path d="M487.29,186.06c-9.58,2.81-20.76,11-19.43,17.74,1.33,6.76,14.84,10.02,24.68,9.13,13.92-1.27,28.49-11.59,27.2-18.79-1.3-7.26-18.79-12.08-32.44-8.07Z" style="fill: none; stroke: #d1d3d4; stroke-linecap: round; stroke-miterlimit: 10; stroke-width: 5px;"/>
  <path d="M369.85,175.06c-3.19,9.46-2.89,23.31,3.39,26.09,6.3,2.79,16.72-6.41,21.63-14.98,6.95-12.13,6.84-29.98,.2-33.06-6.69-3.1-20.67,8.47-25.21,21.95Z" style="fill: none; stroke: #d1d3d4; stroke-linecap: round; stroke-miterlimit: 10; stroke-width: 5px;"/>
  <path d="M348.32,186.06c9.58,2.81,20.76,11,19.43,17.74-1.33,6.76-14.84,10.02-24.68,9.13-13.92-1.27-28.49-11.59-27.2-18.79,1.3-7.26,18.79-12.08,32.44-8.07Z" style="fill: none; stroke: #d1d3d4; stroke-linecap: round; stroke-miterlimit: 10; stroke-width: 5px;"/>
  <path d="M506.31,90.72c-3.26,11.81-1.96,28.75,5.92,31.73,7.91,2.99,20.04-8.99,25.47-19.82,7.68-15.33,6.34-37.19-2-40.51-8.4-3.34-24.74,11.78-29.39,28.6Z" style="fill: none; stroke: #d1d3d4; stroke-linecap: round; stroke-miterlimit: 10; stroke-width: 5px;"/>
  <path d="M332.61,90.72c3.26,11.81,1.96,28.75-5.92,31.73-7.91,2.99-20.04-8.99-25.47-19.82-7.68-15.33-6.34-37.19,2-40.51,8.4-3.34,24.74,11.78,29.39,28.6Z" style="fill: none; stroke: #d1d3d4; stroke-linecap: round; stroke-miterlimit: 10; stroke-width: 5px;"/>
  <path d="M247.71,193.65c4.36,8.98,5.81,22.76-.07,26.31-5.9,3.56-17.4-4.25-23.35-12.14-8.42-11.16-10.57-28.88-4.37-32.77,6.24-3.92,21.57,5.79,27.78,18.59Z" style="fill: none; stroke: #d1d3d4; stroke-linecap: round; stroke-miterlimit: 10; stroke-width: 5px;"/>
  <path d="M269.29,203.22c-9.15,4-19.2,13.53-17.04,20.05,2.17,6.54,15.99,8.07,25.63,5.94,13.65-3.01,26.8-15.09,24.61-22.08-2.2-7.04-20.16-9.61-33.2-3.91Z" style="fill: none; stroke: #d1d3d4; stroke-linecap: round; stroke-miterlimit: 10; stroke-width: 5px;"/>
  <path d="M276.28,121.74c-.98,12.21-8.01,27.68-16.44,27.78-8.45,.1-15.75-15.31-17.14-27.35-1.96-17.04,6.78-37.11,15.76-37.37,9.04-.26,19.21,19.54,17.81,36.94Z" style="fill: none; stroke: #d1d3d4; stroke-linecap: round; stroke-miterlimit: 10; stroke-width: 5px;"/>
  <path d="M191.99,334.49c3.55-9.33,12.58-19.84,19.19-18,6.64,1.85,8.84,15.57,7.18,25.31-2.34,13.78-13.76,27.5-20.85,25.66-7.14-1.85-10.59-19.67-5.53-32.97Z" style="fill: none; stroke: #d1d3d4; stroke-linecap: round; stroke-miterlimit: 10; stroke-width: 5px;"/>
  <path d="M182.58,310.65c9.19,3.91,23.02,4.69,26.28-1.35,3.27-6.07-5.09-17.17-13.26-22.73-11.56-7.87-29.36-9.15-32.95-2.76-3.61,6.43,6.84,21.27,19.93,26.84Z" style="fill: none; stroke: #d1d3d4; stroke-linecap: round; stroke-miterlimit: 10; stroke-width: 5px;"/>
  <path d="M156.43,228.03c9.85-1.64,23.48,.85,25.22,7.49,1.75,6.66-8.99,15.49-18.23,18.97-13.08,4.93-30.69,1.99-32.67-5.06-2-7.1,11.65-19.06,25.68-21.4Z" style="fill: none; stroke: #d1d3d4; stroke-linecap: round; stroke-miterlimit: 10; stroke-width: 5px;"/>
  <path d="M171.9,208.25c.56,9.97,5.99,22.71,12.85,22.96,6.89,.25,13.14-12.17,14.5-21.95,1.93-13.85-4.8-30.37-12.11-30.76-7.36-.39-16.04,15.55-15.24,29.76Z" style="fill: none; stroke: #d1d3d4; stroke-linecap: round; stroke-miterlimit: 10; stroke-width: 5px;"/>
  <path d="M118.66,188.69c10.19,6.79,20.29,20.46,16.28,27.87-4.02,7.43-21.04,6.32-32.23,1.68-15.84-6.57-29.13-23.97-24.99-31.94,4.17-8.03,26.42-7.29,40.94,2.39Z" style="fill: none; stroke: #d1d3d4; stroke-linecap: round; stroke-miterlimit: 10; stroke-width: 5px;"/>
  <path d="M140.98,356.94c-11.52,4.16-28.52,4.15-32.09-3.48-3.59-7.66,7.43-20.67,17.82-26.91,14.7-8.83,36.59-9.17,40.54-1.1,3.98,8.12-9.85,25.57-26.27,31.49Z" style="fill: none; stroke: #d1d3d4; stroke-linecap: round; stroke-miterlimit: 10; stroke-width: 5px;"/>
  <path d="M591.31,193.65c-4.36,8.98-5.81,22.76,.07,26.31,5.9,3.56,17.4-4.25,23.35-12.14,8.42-11.16,10.57-28.88,4.37-32.77-6.24-3.92-21.57,5.79-27.78,18.59Z" style="fill: none; stroke: #d1d3d4; stroke-linecap: round; stroke-miterlimit: 10; stroke-width: 5px;"/>
  <path d="M569.89,202.76c9.15,4,19.2,13.53,17.04,20.05-2.17,6.54-15.99,8.07-25.63,5.94-13.65-3.01-26.8-15.09-24.61-22.08,2.2-7.04,20.16-9.61,33.2-3.91Z" style="fill: none; stroke: #d1d3d4; stroke-linecap: round; stroke-miterlimit: 10; stroke-width: 5px;"/>
  <path d="M562.75,123.07c.98,12.21,8.01,27.68,16.44,27.78,8.45,.1,15.75-15.31,17.14-27.35,1.96-17.04-6.78-37.11-15.76-37.37-9.04-.26-19.21,19.54-17.81,36.94Z" style="fill: none; stroke: #d1d3d4; stroke-linecap: round; stroke-miterlimit: 10; stroke-width: 5px;"/>
  <path d="M647.04,335.82c-3.55-9.33-12.58-19.84-19.19-18-6.64,1.85-8.84,15.57-7.18,25.31,2.34,13.78,13.76,27.5,20.85,25.66,7.14-1.85,10.59-19.67,5.53-32.97Z" style="fill: none; stroke: #d1d3d4; stroke-linecap: round; stroke-miterlimit: 10; stroke-width: 5px;"/>
  <path d="M656.45,311.98c-9.19,3.91-23.02,4.69-26.28-1.35-3.27-6.07,5.09-17.17,13.26-22.73,11.56-7.87,29.36-9.15,32.95-2.76,3.61,6.43-6.84,21.27-19.93,26.84Z" style="fill: none; stroke: #d1d3d4; stroke-linecap: round; stroke-miterlimit: 10; stroke-width: 5px;"/>
  <path d="M682.6,229.36c-9.85-1.64-23.48,.85-25.22,7.49-1.75,6.66,8.99,15.49,18.23,18.97,13.08,4.93,30.69,1.99,32.67-5.06,2-7.1-11.65-19.06-25.68-21.4Z" style="fill: none; stroke: #d1d3d4; stroke-linecap: round; stroke-miterlimit: 10; stroke-width: 5px;"/>
  <path d="M669.09,209.21c-1.25,9.91-7.56,22.24-14.42,22.01-6.89-.23-12.25-13.06-12.93-22.91-.96-13.95,6.91-29.97,14.23-29.84,7.37,.12,14.91,16.63,13.13,30.75Z" style="fill: none; stroke: #d1d3d4; stroke-linecap: round; stroke-miterlimit: 10; stroke-width: 5px;"/>
  <path d="M718.84,192.51c-9.22,8.06-17.45,22.93-12.51,29.75,4.96,6.85,21.68,3.52,32.18-2.54,14.85-8.58,25.76-27.56,20.61-34.93-5.18-7.42-27.14-3.78-40.28,7.71Z" style="fill: none; stroke: #d1d3d4; stroke-linecap: round; stroke-miterlimit: 10; stroke-width: 5px;"/>
  <path d="M698.04,358.27c11.52,4.16,28.52,4.15,32.09-3.48,3.59-7.66-7.43-20.67-17.82-26.91-14.7-8.83-36.59-9.17-40.54-1.1-3.98,8.12,9.85,25.57,26.27,31.49Z" style="fill: none; stroke: #d1d3d4; stroke-linecap: round; stroke-miterlimit: 10; stroke-width: 5px;"/>
  <text transform="translate(247.01 702.87)" style="fill: #d1d3d4; font-family: SofiaProCondensed-Light, &apos;Sofia Pro Condensed&apos;; font-size: 63.51px;"><tspan x="0" y="0" style="letter-spacing: -.08em;">W</tspan><tspan x="38.11" y="0" style="letter-spacing: -.05em;">e G</tspan><tspan x="102" y="0" style="letter-spacing: -.07em;">r</tspan><tspan x="116.04" y="0" style="letter-spacing: -.05em;">o</tspan><tspan x="140.43" y="0" style="letter-spacing: -.05em;">w</tspan><tspan x="174.54" y="0" style="letter-spacing: -.07em;"> </tspan><tspan x="182.09" y="0" style="letter-spacing: -.05em;">With</tspan><tspan x="266.95" y="0" style="letter-spacing: -.07em;"> </tspan><tspan x="274.06" y="0" style="letter-spacing: -.14em;">Y</tspan><tspan x="295.47" y="0" style="letter-spacing: -.05em;">ou</tspan></text>
  <text transform="translate(87.84 627.79)" style="fill: #bcbec0; font-size: 92.1px;"><tspan x="0" y="0" style="font-family: Brother-1816-Book, &apos;Brother 1816&apos;; letter-spacing: -.1em;">F</tspan><tspan x="41.63" y="0" style="font-family: Brother-1816-Light, &apos;Brother 1816&apos;; letter-spacing: -.06em;">ore</tspan><tspan x="169.73" y="0" style="font-family: Brother-1816-Light, &apos;Brother 1816&apos;; letter-spacing: -.03em;">s</tspan><tspan x="207.49" y="0" style="font-family: Brother-1816-Light, &apos;Brother 1816&apos;; letter-spacing: -.06em;">t </tspan><tspan x="254.91" y="0" style="font-family: Brother-1816-Book, &apos;Brother 1816&apos;; letter-spacing: -.06em;">C</tspan><tspan x="312.01" y="0" style="font-family: Brother-1816-Light, &apos;Brother 1816&apos;; letter-spacing: -.06em;">i</tspan><tspan x="331.08" y="0" style="font-family: Brother-1816-Light, &apos;Brother 1816&apos;; letter-spacing: -.04em;">t</tspan><tspan x="361.01" y="0" style="font-family: Brother-1816-Light, &apos;Brother 1816&apos;; letter-spacing: -.06em;">y </tspan><tspan x="420.96" y="0" style="font-family: Brother-1816-Book, &apos;Brother 1816&apos;; letter-spacing: -.06em;">D</tspan><tspan x="482.48" y="0" style="font-family: Brother-1816-Light, &apos;Brother 1816&apos;; letter-spacing: -.06em;">esign</tspan></text>
</svg>