<?xml version="1.0" encoding="UTF-8"?><svg id="a" xmlns="http://www.w3.org/2000/svg" width="2001" height="2001" viewBox="0 0 2001 2001"><defs><style>.b{letter-spacing:-.03em;}.c{fill:#fff;stroke:#231f20;stroke-miterlimit:10;}.d{font-family:LustScriptDisplay, 'Lust Script';font-size:402.17px;}.d,.e,.f{fill:#432564;}.g{letter-spacing:-.03em;}.f{font-family:Broadway, Broadway;font-size:154.68px;}.h{letter-spacing:-.03em;}.i{letter-spacing:-.04em;}.j{letter-spacing:-.02em;}</style></defs><rect class="c" x=".5" y=".5" width="2000" height="2000"/><g><path class="e" d="M1049.77,1088.64c.03,21.75-16.61,40.9-37.4,45.88-11.49,2.75-25.43-.75-28.55-13.74,8.58-5.15,15.37-14.14,15.69-24.4,.33-10.56-8.74-17.59-18.9-15.11-35.94,8.77-44.19,65.02-48.66,95-13.53,88.61-27.07,177.22-40.62,265.82-59.08-73.73-117.5-147.96-174.89-223.01-8.19,51.18-16.38,102.36-24.58,153.54-9.95,62.27-44.69,132.6-115.42,137.18-48.89,3.17-93.91-24.84-94.11-77.32-.17-45.39,39.72-77.21,82.85-79.64,35.09-1.98,78.8,17.32,79.23,57.5,.3,28.58-23.3,51.97-51.08,54.45-25.72,2.3-43.99-20.42-36.6-45.13,20.06-1.27,37.18-17.75,37.4-38.17,.19-17.35-15.66-27.53-31.77-26.07-38.53,3.48-63.53,38.61-63.54,76.17-.02,45.87,30.86,78.64,77.62,75.81,69.85-4.22,103.29-73.74,113.01-134.86,6.91-43.14,13.81-86.29,20.71-129.43,3.05-19.52,5.73-46.79-7.04-63.79,27.05,3.31,56.37-.75,82.85-6.62v-.4c-51.18,5.85-96.76-25.1-146.79-20.8-18.28,1.57-42.34,11.91-44.04,33.07-1.34,16.71,12.56,28.1,28.35,26.77,11.74-.99,22.56-8.33,28.15-18.92,13.32,5.13,22.62,17.8,22.52,32.02-.19,28.1-25.03,49.58-51.88,52.56-31.63,3.52-58.08-19.13-58.32-50.75-.32-42.35,35.48-74.38,75.21-77.16,24.55-1.72,48.03,4.63,72.19,11.62,25.11,7.26,49.21,12.67,74.6,9.18,9.39-1.29,14.28-7.49,14.28-13.12,0-5.03-3.62-8.01-8.85-7.11-2.82,.48-5.43,2.14-7.44,4.49-4.83-2.4-6.49-7.42-6.43-11.39,.17-12.1,10.83-20.88,22.12-23.08,10.65-2.07,21.54,4.07,21.32,15.9-.32,16.4-12.97,29.31-27.75,34.68,37.91,49.52,76.18,98.77,114.68,147.83,7.22-47.23,14.44-94.46,21.65-141.7,6.86-45.55,22.78-107.67,74.4-116.38,20.38-3.44,45.81,2.36,45.85,28.64Z"/><path class="e" d="M1174.44,1241.88c-.21,71.49-63.78,141.6-131.91,156.87-49.95,11.2-97.46-14.47-97.33-69.47,.18-73.01,62.12-140.25,131.51-156.32,50.19-11.62,97.89,13.51,97.73,68.91Zm-73.4-25.64c.11-13.93-1.72-46.85-24.53-40.82-29.28,7.75-39.76,54.04-45.53,79-7.64,33.07-12.1,67.85-12.38,101.69-.11,13.61,1.89,45.97,24.13,40.18,28.99-7.55,39.99-52.05,45.9-76.88,7.98-33.53,12.14-68.87,12.42-103.17Z"/><path class="e" d="M1188.92,1300.13c7.1-41.54,14.21-83.08,21.32-124.62,4.13-14.77-6.09-16.27-16.89-11.1v-1.01c17.24-14.05,40.15-24.75,61.53-29.88,23.61-5.67,30.34,8.89,26.14,30.21-5.36,31.44-10.73,62.87-16.09,94.31-2.55,15.75-19.56,79.23,7.64,84.63v1.01c-9.44,3.95-19.83,7.09-29.76,9.23-41.28,8.91-59.06-12.39-53.89-52.78Zm39.41-177.3c8.3-16.27,13.5-44.43,.2-59.56,8.14-17.63,25.91-32.87,44.64-37.42,16.36-3.97,33.86,4.96,33.38,23.59-.97,37.59-43.46,68.37-77.62,74.07-.24-.27-.36-.4-.6-.67Z"/><path class="e" d="M1289.05,1299.19c.06-18.86,16.39-36.95,34.59-40.47,13.17-2.55,34.09,14,28.96,21.24-3.65,5.15-17.03,16.67-17.29,28.31-.45,20.25,24.99,18.12,37.6,16.1,20.5-3.29,58.7-15.09,58.92-42.16,.45-56.2-126.2-16.34-125.48-85.94,.57-54.72,65.6-87.59,112.01-95.58,22.16-3.81,75.36-7.88,75.01,27.35-.16,16.47-14.33,31.56-30.16,34.16-13.49,2.21-27.77-5.7-28.15-20.47,8.49-3.45,16.69-14.05,16.49-23.16-.37-16.95-21.89-16.9-33.78-15.36-19.42,2.51-49.09,16.52-49.47,40.65-.85,55.05,123.73,14.38,123.47,84.54-.21,58.26-71.3,89.62-119.65,98.53-24.33,4.48-83.17,10.3-83.05-27.74Z"/><path class="e" d="M1514.67,1217.28c.17-72,57.64-139.04,130.71-143.32,28.16-1.65,78.76,4.74,78.83,42.64,.1,55.47-95.87,51.14-129.9,48.44,.24-.91,.36-1.36,.6-2.26,34.27,.66,68.68-25.82,69.78-61.39,.36-11.72-6.13-25.55-19.3-25.01-41.68,1.73-56.17,71.23-56.3,103.4-.14,35.36,16.79,67.72,56.1,65.72,25.83-1.32,52.11-13.26,67.16-34.94,.64,.32,.97,.47,1.61,.79-25.48,43.68-65.28,79.49-117.64,84.02-48.66,4.21-81.76-30.25-81.64-78.09Z"/></g><text class="d" transform="translate(113.83 732.77)"><tspan class="b" x="0" y="0">M</tspan><tspan class="j" x="529.66" y="0">a</tspan><tspan class="i" x="764.53" y="0">k</tspan><tspan x="991.35" y="0">e</tspan></text><g><path class="e" d="M366.61,1000.33c-.23-45.05,39.61-77.05,82.85-77.75,35.88-.58,78.66,21.99,79.23,62,.4,28.22-23.6,50.32-51.08,51.25-25.6,.86-44.06-21.92-36.6-46.75,19.92-.49,37.22-16.17,37.4-36.51,.15-17.34-15.47-28.34-31.77-27.52-38.99,1.95-63.76,37.81-63.54,75.06,.33,57.71,54.74,87.32,106.98,84.9,47.53-2.2,104.17-24.09,104.16-79.87,0-40.33-46.22-60.49-76.41-77.48-35.37-19.9-76.4-45.01-76.41-90.2-.02-59.28,65.21-88.28,116.83-89.93,36.81-1.18,95.66,9.52,96.32,57.05,.39,28.03-21.93,51.09-49.47,52.51-23.33,1.21-43.94-33.34-36.6-40.77,5.18-5.24,28.48-17.7,28.55-34.1,.1-22.19-18.11-32.98-38.61-32.29-27.88,.94-53.32,18.25-53.49,47.94-.21,35.5,47.89,53.96,73.6,68.29,35.04,19.53,73.41,44.36,73.6,88.93,.36,84.44-87.93,131.42-162.08,132.32-54.53,.66-123.12-21.2-123.47-87.08Z"/><path class="e" d="M901.5,899.31c-.63,68.8-64.39,130.7-131.91,134.76-51.79,3.11-96.82-32.24-97.33-85.79-.67-70.78,62.94-130.26,131.51-134.21,51.44-2.96,98.22,30.8,97.73,85.24Zm-73.4-37.85c.11-15.35-1.63-46.82-24.53-44.96-29.2,2.38-40.1,48.74-45.55,71.27-7.8,32.29-12.11,66.5-12.37,99.61-.12,15,1.8,45.98,24.13,44.26,29.2-2.25,40.38-46.9,45.88-69.13,8.1-32.75,12.19-67.44,12.44-101.05Z"/><path class="e" d="M919.59,961.7c7.24-41.08,14.48-82.15,21.72-123.23,3.68-13.75-5.34-17.43-16.89-13.81v-1.01c17.6-11.48,40.81-18.47,61.53-20.16,23.24-1.9,31.79,12.4,26.54,34.14-6.64,30.71-13.27,61.42-19.91,92.12,.48-.03,.72-.05,1.21-.08,12.87-47.62,35.6-129.37,96.72-133.33,42.3-2.74,48.99,32.8,41.62,66.42-4.29,19.81-8.58,39.62-12.87,59.43,.48-.03,.72-.04,1.21-.07,12.82-47.36,35.62-129.2,96.72-132.45,42.77-2.28,48.14,34.55,42.23,68.13-3.22,19.17-6.44,38.34-9.65,57.51-2.84,17.9-18.84,77.36,8.04,86.33v1.01c-9.56,2.35-20,3.7-29.76,4.1-40.07,1.67-60.5-22.21-53.89-62.15,5.56-35,11.13-70,16.69-105,1.67-7.75,4.39-29.32-8.45-28.13-33.99,3.15-52.62,85.94-59.32,111.73-4.34,17.77-23.07,71.31-4.42,85.3v1.01c-11.55,2.34-23.24,4.43-34.99,5.22-39.14,2.62-43.08-28.76-37.4-60.92,5.97-35.75,11.93-71.5,17.9-107.24,1.76-7.73,4.49-29.38-8.45-28.05-34.08,3.52-52.58,86.2-59.32,112.22-4.32,17.71-23.09,71.43-4.42,85.33v1.01c-11.54,2.41-23.23,4.57-34.99,5.41-39.23,2.81-43.35-28.54-37.4-60.78Z"/><path class="e" d="M1279.13,918.15c-.28-71.56,59.04-133.35,130.71-134.77,28.17-.56,78.76,6.47,78.83,44.17,.1,56.54-96.22,49-129.9,44.38,.24-.89,.36-1.34,.6-2.23,34.16,2.73,68.71-22.76,69.78-58.26,.35-11.84-6.14-25.68-19.3-25.66-41.66,.07-56.19,69.01-56.3,100.56-.13,35.42,16.87,69.22,56.1,68.55,25.73-.44,52.03-11.7,67.16-33.43,.64,.32,.97,.48,1.61,.8-25.31,43.22-65.16,78.72-117.63,80.11-49.06,1.31-81.46-36.89-81.64-84.24Z"/></g><text class="f" transform="translate(1154.02 1486.9)"><tspan class="g" x="0" y="0">r</tspan><tspan x="76.74" y="0">eco</tspan><tspan class="h" x="349.17" y="0">r</tspan><tspan x="426.44" y="0">ds</tspan></text><text/></svg>