<?xml version="1.0" encoding="UTF-8"?><svg id="a" xmlns="http://www.w3.org/2000/svg" width="2458.29" height="1089.32" viewBox="0 0 2458.29 1089.32"><defs><style>.b{letter-spacing:-.04em;}.b,.c,.d,.e,.f,.g,.h,.i,.j{font-family:GloucesterMT-ExtraCondensed, 'Gloucester MT Extra Condensed';}.k,.d{letter-spacing:-.02em;}.c{letter-spacing:-.03em;}.l,.i{fill:#9f77b4;}.m{font-family:BaskOldFace, 'Baskerville Old Face';}.n{fill:#ceadd2;}.o{letter-spacing:-.14em;}.p{letter-spacing:-.02em;}.q{letter-spacing:-.12em;}.r,.s{fill:#729857;}.r,.i{font-size:493.77px;}.t{fill:#739758;}.e,.u{letter-spacing:-.02em;}.v{letter-spacing:-.03em;}.w{letter-spacing:-.02em;}.g{letter-spacing:-.02em;}.h{letter-spacing:-.02em;}.x{fill:#cdacd1;}.y{letter-spacing:0em;}.z{letter-spacing:-.01em;}.j{letter-spacing:0em;}</style></defs><text class="r" transform="translate(181.04 434.26)"><tspan class="h" x="0" y="0">W</tspan><tspan class="d" x="284.49" y="0">i</tspan><tspan class="e" x="362.42" y="0">s</tspan><tspan class="c" x="496" y="0">t</tspan><tspan class="b" x="583.69" y="0">e</tspan><tspan class="j" x="721.18" y="0">r</tspan><tspan class="g" x="848.89" y="0">i</tspan><tspan class="f" x="925.34" y="0">a</tspan><tspan class="m" x="1081.57" y="0"> </tspan></text><text class="i" transform="translate(186.97 868.97)"><tspan class="q" x="0" y="0">T</tspan><tspan class="p" x="132.21" y="0">e</tspan><tspan class="y" x="277.6" y="0">a</tspan><tspan class="o" x="433.83" y="0"> </tspan><tspan class="k" x="451.03" y="0">C</tspan><tspan class="w" x="636.49" y="0">om</tspan><tspan class="u" x="1040.63" y="0">p</tspan><tspan class="z" x="1201.21" y="0">a</tspan><tspan class="v" x="1352.01" y="0">n</tspan><tspan x="1508.19" y="0">y</tspan></text><path class="l" d="M118.86,568.2c.49,.36,.83,.99,.66,1.61-.2,.69-.89,1.06-1.51,1.31-1.87,.82-3.58,1.96-5.31,3.03-3.39,2.39-6.79,5.65-11.27,5.13-4.41,0-8.29-2.64-11.17-5.79-1.3-1.43-3-3.53-3.86-5.71-1.27,2.02-3.28,3.98-5.81,3.87-1.93-.1-3.77-.78-5.48-1.64-3.01-1.82-4.05-2.86-7.61-1.4-3.19,.87-6.68,1.1-9.95,.54-2.7-.48-4.46-2.85-6.18-4.79-2-2.6-3.02-5.89-3.69-9.07-.14-2.69-.09-5.58,.97-8.09,2.36-4.92,7.92-1.47,11.96-1.96,1.16,.05,6.32-1.36,9.77-1.75,.11-.18,.27-.33,.49-.41,1.17-.4,2.29-.96,3.46-1.38,3.97-1.08,8.15-1.33,12.18-2.16,2.48-.5,4.85-1.44,7.33-1.91,2.56-.37,5.2-.23,7.76,.08,8.35,.72,9.67,11.4,11.75,17.84,.66,2.62,1.56,5.14,2.77,7.53,.92,1.66,1.19,3.91,2.75,5.1Z"/><path class="l" d="M61.6,582.62c5.93,2.75,7.1,8.02,5.05,13.88-1.3,4.4-2.84,8.77-4.79,12.92-1.66,2.98-3.62,5.82-5.8,8.44-2.97,3.33-7.6,4.68-11.93,4.9-5.41,.12-11.03-3.04-10.26-9.13-.04-2.91,1.64-5.37,3.59-7.4,3.41-4.02,7.95-6.91,11.42-10.87,.1-.14,.19-.29,.28-.43,.04-1.29-.29-2.63,.03-3.89,.51-1.08,1.99-.1,1.6,.85,.03,.02,.06,.04,.1,.06,1.12-2.13,2.05-4.36,2.87-6.62,2.06-6.3,2.47-5.48,7.86-2.71Z"/><path class="l" d="M121.01,631.38c2.22,1.11-2.03,4.46-3.07,5.23-2.38,1.68-5.28,1.72-8.07,1.68-2.62,.26-5.19,1.1-7.85,.79-3.86-.59-8.25-.71-10.53-4.3-.86-1.19-1.47-2.63-1.36-4.12,.05-.38-.03-.91,.14-1.25-1.19-2.39,.86-8.08-.06-10.5-.83-3.82-3.58-6.83-5.1-10.37-.09,4.75,.85,9.56-.14,14.22,.22,.6,.18,1.21-.05,1.76,.28-.13,.56-.29,.83-.48,.51-.29,1.17-.13,1.47,.38,.64,1.2-.85,1.74-1.71,2.13-.81,.46-1.73,.7-2.67,.66-2.16-.02-4.42-.65-6.54-.78-5.54-.12-13.03,0-12.02-7.7,.08-2.28,.88-4.46,.95-6.73,.02-1.74-.54-3.44-.43-5.19,.04-1.58,.22-3.15,.49-4.7-.06-.34,.16-.69,.5-.78,.06-.58,.16-1.15,.35-1.7,1.1-1.94,2.38-1.09,2.69,.78,1.05-.81,1.9-.01,2.53,.97,.81-.47,1.72-.12,1.89,1.14,.4,.09,.69,.39,.87,.75,.89,.13,1.68,.35,1.64,1.2-.13,.6-.52,.76-.99,.74,.08,.37,.14,.75,.23,1.1,.75-.69,1.7-.01,1.95,.8,0-.59,0-1.19,.03-1.78-.02-1.1,1.57-1.49,2.04-.48,.06-.36,.28-.68,.64-.83,.04-.02,.09-.03,.13-.04,.45-.7,1.58-.59,1.89,.18,.38,.7,.44,1.5,.5,2.28,.06,0,.13,0,.19,0,.06,0,.11,.02,.17,.04,.02-.28,.04-.56,.06-.84,.03-.27,.17-.5,.37-.67-.04-.82,.62-1.71,1.49-1.61,.93,.22,1.28,1.35,1.67,2.12,.61,1.46,1.26,2.9,2.01,4.28,2.03,3.58,4.6,7.15,4.45,11.45,.91,.04,1.15,1.04,1.12,1.8,.06,1.47,.1,2.94-.13,4.4,.17,1.71,.5,3.41,.8,5.1,.04,.29-.04,.57-.21,.79,.05,.11,.09,.22,.17,.3,1.21-.79,1.56-2.45,1.87-3.76,.35-1.64,.49-3.33,.72-5,.33-2.63,.7-5.25,1.2-7.86,.06-.46,.23-.93,.7-1.12,.96-.39,1.7,.65,1.92,1.47,.45,1.63,0,.75,.76,2.91,.01-2.94-.29-5.92,.06-8.84,.22-.83,1.19-1.24,1.98-1.04,.96,.28,1.46,1.22,2.01,1.96,.63-.83,1.8-.31,2.01,.59,.16,.11,.29,.27,.37,.46,.02,.05,.04,.1,.06,.15,1.74-.1,2.43,1.64,2.66,3.08,.38,1.57,.59,3.16,.88,4.75,.62-.47,1.6-.05,1.68,.73,.12,1.26,.51,2.48,.8,3.71,.52-.63,1.66-.38,1.84,.42,.1,.44,.15,.89,.27,1.32,1.04,.29,1.29,1.6,1.8,2.42,1.02-.13,1.38,.87,1.8,1.71,.3-.34,.7-.53,1.22-.31Z"/><path class="l" d="M95.1,636.22c-.75-.33-.93-1.15-.93-1.9-.02-.71-.29-1.37-.47-2.06-.3-1.47-1.06-3.18-.95-4.65,.19-.72,1.04-1.11,1.67-.68,.18-.22,.43-.37,.71-.4,.84-.79,1.96,.06,1.85,1.09,.64-1.04,2.29-.35,1.97,.84-.26,1.19-.5,2.39-.79,3.58-.14,.76-.36,1.69-1.16,2.01-.28,.41-.24,.91-.32,1.39-.08,.73-.95,1.14-1.57,.76Z"/><path class="l" d="M195.04,652.04c1.82,3.64,2.91,7.62,2.33,11.71-.27,3.55-2.26,6.62-4.16,9.47-1.65,2.45-3.58,5.71-6.91,5.65-4.71-.33-4.78-3.51-6.65-6.87-2.58-4.09-5.49-8.11-9.44-10.89,.5,2.44-2.55,3.65-4.7,3.62-4.81,.28-8.02-3.17-10.5-6.85-2.81-3.7-3.14-8.48-2.94-12.97-.06-4.27,1.67-8.16,3.55-11.88,1.2-2.18,1.71-4.59,2.19-7.01,.05-.18,.1-.38,.18-.56-.09-.06-.17-.13-.24-.22-.76,.18-1.51-.45-1.49-1.22,0-.52,.37-.96,.66-1.36,.85-1.19,1.75-2.33,2.71-3.42,1.29-.85,1.92-4.49,3.81-3.37,.19-.1,.39-.2,.58-.3-.16-.1-.32-.22-.45-.36-.58-.55-.07-1.58,.72-1.45,.17,.01,.33-.05,.5-.09,.39-.11,.79,.07,1,.38,.48-.61,1.63-.66,1.91,.34,.1,.36,.17,.73,.23,1.1,.01,0,.03,.01,.04,.02,.22-.32,.61-.51,1.01-.45,4.43,.39,7.46,4.01,10.2,7.13,.89,.98,1.98,1.53,3.16,2.07,1.17,.68,2,1.79,2.72,2.92,1.95,2.69,2.3,6.03,2.59,9.24,.44,2.51,1.69,4.76,3.02,6.88,1.83,2.73,3.14,5.72,4.38,8.75Z"/><path class="l" d="M70.59,634.22c.26-1.35,2.36-1.02,2.12,.39-.17,.76-.43,1.51-.65,2.26,0,.08-.01,.15-.06,.22,0,0,0,.01,0,.02-1.18,2.98-1.86,6.13-2.95,9.15-2.47,6.48-8.96,9.79-13.72,14.29-3.41,3.34-5.04,8.04-8.61,11.23-2.02,1.77-4.53,2.83-6.97,3.89-3.1,1.23-6.32,2.6-9.72,2.49-2.8-.24-5.53-1.22-8.18-2.14-3.2-1.49-5.63-4.27-7.77-7-.95-1.5-3.09-4.88-3.15-7.12-1.14-.54-2.06-1.35-2.59-2.59-.95-2.77-.06-5.8,1.19-8.32,.91-1.82,2.53-3.05,4.01-4.4-.01-.24,.07-.49,.27-.72,2.54-3.23,5.69-4.46,9.73-4.02,3.46,.29,6.89,1.11,9.98,2.72,3.75,1.7,8.78,1.87,10.99,5.75,4.15-3.37,7.75-7.33,10.53-11.95,.31-.5,1.01-.62,1.49-.31,.36,.24,.52,.64,.47,1.03,1.07-.89,2.2-1.7,3.47-2.28,1.48-.65,3.02-1.13,4.57-1.58,1.54-.44,3.87-1.15,5.42-.45,.05-.18,.1-.37,.15-.55Z"/><path class="l" d="M86.52,750.82c.01,1.24-.33,2.47-.71,3.65-.89,2.73-.38,5.62-.53,8.44-.1,3.03-.52,6.04-1.07,9.01-.99,7.81-3.82,12.63-12.47,11.9-3.82-.35-7.24-2.62-9.55-5.61-1.43-1.71-2.23-4.16-4.47-4.75-2.51,.45-4.72,2.54-7.44,1.9-3.51-.48-5.27-4.02-6.08-7.11-.97-3.72-.94-7.65-2.23-11.29-1.58-3.8-3.56-7.66-3.42-11.89,.34-4.85,3.61-9.36,7.85-11.64,.1-1.49,1.95-1,2.97-1.14,.23-.13,.53-.16,.78-.04,2.16-.21,4.32-.28,6.43,.28,3.38,.76,6.78,1.68,9.83,3.34,2.36,1.47,3.83,3.9,5.56,5.99,3.07,3.58,7.9,4.41,11.89,6.54,.92,.67,2.41,1.22,2.68,2.41Z"/><path class="l" d="M40.45,726.04c.69,5.14-1.73,10.38-6.28,12.93-2.63,1.5-5.49,3.48-8.66,2.81-2.8-.33-4.43-2.99-7.04-3.79-3.17-1.18-6.79-.68-9.76-2.42-1.83-.99-2.88-2.89-3.74-4.7-.72-1.52-1.5-3.03-1.98-4.66-1.17-3.13-.23-6.52,2.02-8.91,2.04-2.51,4.4-4.77,7.04-6.66,2.88-1.92,5.32-4.49,7.35-7.25,.88-1.05,1.68-2.79,3.24-2.79,1.59,.26,1.46,2.62-.24,2.12-.08,.08-.17,.17-.25,.26-.03,.03-.06,.06-.08,.1,3.29,.53,5.67,3.08,7.51,5.67,2.66,3.09,5.19,6.3,7.65,9.54,1.5,2.36,2.71,4.98,3.23,7.73Z"/><path class="l" d="M85.69,680.48c1.74-.29,1.52,2.09,1.54,3.23-.07,4.3-2.51,8.31-6.07,10.64-1.1,.82-2.41,1.54-3.83,1.41-2.95-.39-4.91-3.03-6.67-5.19-1.05-1.38-1.97-2.99-3.55-3.83-3.37-1.61-7.92-1.04-10.39-4.25-1.37-1.74-2.17-7.74,.32-8.7,.32-.04,.57,.15,.69,.4,1.1-1.15,3.03-.42,3.47,1.02,.24,.08,.48,.15,.73,.22,.39,.1,.78,.19,1.17,.27,.54-.29,.98,.19,1.5,.25,2.94,.43,6.13,2.31,7.05,5.24,.35,.29,.71,.57,1.06,.86,1.36-1.45,3.38,.93,3.83,2.21,.98,.52,2.07,.81,3.17,.96,.79-1.02,2.26-.4,3.06,.29,.2,0,.41,0,.61,0,.31-.27,.65-.57,1.07-.62,.18-.02,.36,0,.53,.06,.15-.94,.16-1.91,.01-2.89-.23-.62,.01-1.38,.7-1.56Z"/><path class="l" d="M50.1,779.12c1.05,2.59,2.4,5.23,2.28,8.09-.4,5.42-2.25,10.71-4.36,15.7-1.11,2.59-2.84,4.78-4.26,7.19-2.1,3.08-5.23,5.48-8.48,7.26-3.88,1.78-8.07,2.99-12.37,2.4-8.91-.12-15.12-13.97-7.21-19.51,1.8-1.54,4.09-2.04,6.23-2.89,1.06-.54,1.98-1.29,2.94-1.97,5.14-2.58,4.26-7,4.63-11.85-.55-.63,0-1.4,.25-2.05,.25-.92,.12-3.19,1.54-2.94,3.08-6.28,11.54-9.41,16.61-3.61,1.17,1.14,1.74,2.64,2.2,4.17Z"/><path class="l" d="M57.5,837.2c2.72,.92,12.75,2.87,11.96,6.62-1.61,8.09-8.23,6.54-14.39,8.51,.02,0,.04-.02,.06-.03-4.55,.98-8.2,7.11-12.92,5.44-1.38-.52-2.03-1.89-2.44-3.21-.5-1.38-1.06-2.75-1.7-4.08-1.99-3.36-4.24-7.05-3.34-11.12-.39-.78,.32-1.61,.79-2.19,1.26-1.38,3.25-1.26,4.9-.78,2.61,.36,5.27,.08,7.9,.19,3.06-.04,6.2-.22,9.17,.65Z"/><path class="l" d="M92.4,883.4c.28,2.21-.18,4.41-1.02,6.44-.03,.09-.06,.17-.09,.26-.05,.21-.09,.42-.14,.61-.04,.14-.1,.26-.18,.36-2.12,6.99-1.27,13.86-8.04,18.79-3.43,2.76-6.35,9.28-11.42,8.3-2.73-.95-3.54-3.86-3.28-6.58-.25-.79-.18-1.85-.3-2.52-.31-3.61,1.09-7.07,2.4-10.36,2.03-4.99,4.35-10.08,8.14-13.99,1.21-1.3,2.55-2.48,3.52-3.99,1.01-1.82,2.62-3.82,4.7-4.07,0-.11,.03-.24,.08-.35,.5-1.08,1.74-.53,2.43,.05,2.59,1.36,3.14,4.37,3.18,7.05Z"/><path class="l" d="M97.86,928.57c-.25-.01-.48-.05-.7-.18-.07-.04-.14-.09-.2-.15-1.17-.09-2.72-.42-3.25-1.6-.29-1.08-1.28-4.57-.09-5.16,.32-.15,.67,.02,.83,.29,.14-1.05,.52-2.36,1.77-2.44,.94-1.22,1.88-2.45,2.87-3.62,.17-1.16,.73-2.35,2.01-2.52,.86-1.13,2.53-2.6,3.6-.86,.67,1.13,.51,2.54,.45,3.8-.14,1.75-.41,3.51-1,5.17-.72,2.79-2.39,5.55-5.16,6.69-.25,.36-.69,.6-1.13,.58Z"/><path class="l" d="M139.89,912.74c-1.69-1.7-3.08-3.66-5.01-5.09-6.1-3.27-6.44-5.94-7.5-12.3-.09-1.47,2.14-1.27,1.8,.16,.71,5.1,1.38,7.68,6.31,10.04-.13-.36-.22-.73-.25-1.11-.04-.58,.09-1.14,.29-1.68-.11-.5,.07-1.04,.49-1.34-.11-1.06,.72-2.08,1.83-1.76,1.48-1.22,3.41-.98,5.19-1.03,4.32-.14,6.5,5.64,6.12,9.29-.61,4.83-4.94,9.23-9.27,4.8Zm5.49-9.11c.72,.39,1.11,1.17,1.54,1.84-.42-1.8-1.3-3.68-2.98-4.61-.83-.16-1.7,.02-2.54-.03,.56,.26,.77,.88,1.1,1.36,.65,.37,1.13,.99,1.56,1.59,.39-.28,.88-.34,1.32-.15Z"/><path class="l" d="M163.78,901.97c-7.3-1.31-10.08-8.83-10.53-15.44-.2-2.95,.06-5.92,1.14-8.65,.58-.81,1.48-.22,1.56,.63,1.18,.19,2.15,1.01,3.2,1.52,1.92,.8,3.51,2.15,5.09,3.47,2.13,1.48,4.04,3.2,5.56,5.32,.84,.94,1.7,1.94,2.11,3.15,1.84,4.91-2.99,10.71-8.12,10.01Zm2.92-11.25s.02-.01,.03-.02c.25-.14,.51-.17,.77-.11,.12-.22,.31-.41,.55-.51,0,0,0,0,.01,0-1.41-1.95-3.19-3.52-5.15-4.89-1.93-1.84-4.25-3.05-6.59-4.28-.03,.17-.05,.34-.06,.5-.02,.32-.03,.63-.03,.95,.14,.07,.27,.18,.36,.31,.35,.5,.69,1,1.02,1.52,1.29,.5,1.9,1.84,2.75,2.82,1.5,.27,2.62,1.46,3.35,2.74,.2-.8,1.25-1.21,1.93-.73,.56,.41,.74,1.13,1.07,1.71Z"/><path class="l" d="M177.36,853.36c.34,2.51,1.07,5.97-1.17,7.79-2.39,1.64-5.6,1.77-8.25,.69-1.31-.44-2.68-1.65-4.08-.85-1.92,.97-3.08,2.89-4.89,4.01-1.65,.99-3.58,1.53-5.51,1.51-7.99-.57-12.82-16.96-12.49-24.99-.09-.06-.17-.15-.22-.25-.42-.61-.21-.98,.35-1.19,0-.06,.02-.12,.03-.18,.11-1.17,.38-5.42,2.28-3.41,.2,.43,.37,.86,.55,1.3,.28,.64-.41,1.34-1.05,1.07-.03,.32-.06,.64-.09,.97,1.67-.05,3.73,.21,4.25,.23,2.4,.26,4.75,.94,6.89,2.07,4.51,2.64,8.99,5.34,13.75,7.52,2.45,.82,5.03,1.66,7.22,3.05-.13-.42-.29-.84-.47-1.26-.26-.96-1.08-2.58,.29-3.02,.55-.14,1.17,.2,1.31,.77,.28,1.44,.99,2.75,1.29,4.19Z"/><path class="l" d="M165.22,822.6c-5.22-.51-7.77-6-8.57-10.61-.45-3.71-.04-7.41-.85-11.06-.6-3.77-2.31-7.29-2.86-11.06-.38-2.53-.62-5.12-.56-7.67,.08-.51,.84-.56,.96-.05,.57,2.86,.67,5.82,1.45,8.65,1.2,4.23,2.99,8.31,3.4,12.74,.48,2.83,.04,5.72,.58,8.54,.47,2.33,1.53,4.63,2.94,6.52,3.12,3.21,6.81,1.73,10.12-.19,3.08-1.15,5.91-3.38,9.35-3.1,.76-.02,1.58,.2,2.31-.07,.71-.56,1.02-1.83,2.19-1.16,1.01,.69,.17,1.87-.47,2.51-1.29,1.36-3.29,.8-4.95,.85-1.89,.13-3.58,1.11-5.23,1.91,.01,0,.02,0,.03-.01,.01,0,.03-.02,.04-.02-3.25,1.26-6.25,3.73-9.92,3.29Z"/><path class="l" d="M168.22,821.13c-.57-.04-1.13-.13-1.7-.25-.18-.04-.35-.08-.53-.13-.79,.71-1.94-.06-2.56-.66-.4,.2-.91,.14-1.25-.2-.18-.17-.36-.34-.52-.52-1.07-.1-1.51-1.18-1.69-2.11-.3-.54-.48-1.13-.49-1.76-.15-.64-.38-1.52-.51-2.09-.92-4.37-1.46-8.74-2.06-13.15-.92-2.53-1.79-5.06-2.49-7.67-.41-2.29-2.63-7.33-.47-8.97,1.78-1.03,4.01-.88,5.8,.05,1.38,.99,2.04,2.73,3.34,3.8,1.72,1.41,3.07,3.19,4.61,4.78,1.74,1.86,3.76,3.41,5.59,5.17,1.52,1.52,2.95,3.13,4.43,4.69,3.16,3.13,6.69,6.43,7.73,10.91,.29,1.38-.35,3-1.7,3.55-.22,.09-.51,.13-.71-.03-.41-.36-.14-.88,.33-.97,.4-.25,.61-.65,.73-1.09-.11,.14-.25,.25-.42,.32-.86,.34-1.7,.75-2.56,1.09-.98,2.74-5.2,2.19-7.56,2.42-.75,2.24-3.14,3.14-5.34,2.84Zm-.31-5.83s.07-.02,.11-.04c-.03-.1-.06-.21-.09-.31,0,.01,0,.02,.01,.03,0-.01,0-.02-.01-.04,0-.03-.02-.06-.03-.09h0s.02,.05,.02,.08c0-.02-.02-.04-.02-.07,0,.14,0,.29,.01,.43Zm1.33-2.26c.43,.43,.68,1.01,.83,1.6,.75-.16,1.53-.46,2.3-.33,.82-.22,1.79-.28,2.52,.23,1.52-.59,3.29-.84,4.88-.45,1.05-.38,2.05-.86,3.08-1.28,.38-.15,.8-.07,1.1,.18-1.48-4.1-4.81-6.88-7.82-9.83-3.01-3.39-6.52-6.25-9.79-9.37-1.8-1.99-3.66-3.89-5.61-5.72-.79-.81-1.28-1.88-2.14-2.61-.9-.32-1.81-.59-2.72-.32,.49,3.35,1.1,6.67,1.8,9.96,1.45,.37,1.31,2.53,1.83,3.69,.66,2.22,1.29,4.45,2.04,6.64,1.09-.19,1.48,1.16,1.91,1.91,.45-.73,1.6-.59,2.06,.06,.7,1.59,.96,3.39,1.4,5.07,.79-.42,1.74-.02,2.33,.58Z"/><path class="l" d="M193.91,761.69c.49-.27,1.11,.44,.64,.9-.28,.25-.6,.39-.95,.46-.5,1.78-1.26,3.51-1.81,5.22-1.37,3.4-3.58,7.62-7.85,7.29-2.5-.24-4.49-2.15-5.84-4.14-1.35-1.85-2.35-4.47-4.82-5.01-5.87-.42-9.99-1.53-13.16-6.91-1.15-1.81-1.98-3.78-2.61-5.83-.21-.03-.42-.13-.57-.3-.54-.65-.26-1.6-.35-2.38-.01-.29,0-.56,.03-.83-.3-1.4-.54-2.8-.75-4.19-.03-1.05,1.54-.75,1.14,.22,.13,.58,.27,1.17,.41,1.78,1.61-2.41,5.22-3.56,7.92-4.21,1.97-.61,3.96-.21,5.83,.52,1.34,.43,2.76,.68,4.02,1.34,5.65,3.46,8.51,9.91,13.77,13.83,.91,.58,1.85,1.44,2.88,1.95l.06-.24c.33-1.23,2.25-.82,2.04,.45,0,.03-.01,.06-.02,.1Z"/><path class="l" d="M148.85,753.18c.87,2.9,2.02,9.05-2.72,8.66-2.93-.27-5.6-1.75-8.43-2.5-2.38-.84-4.76-2.34-7.37-2.08-2.57,.57-5.05,1.39-7.48,2.36-2.18,1.08-4.51,1.7-6.94,1.73-3.92,.41-8.05-1.09-10.38-4.34-.57-.59-1.08-1.22-1.52-1.89h0c-.11-.13-.22-.27-.31-.4-.42-.58-.78-1.19-1.13-1.81-.86-.57-1.03-1.78-1.53-2.63-.24-.45-.56-.95-.42-1.47-.4-1.58-.52-3.2-.49-4.82,0-2.28-.16-4.56,.09-6.83,.04-.68,.62-1.34,1.34-1.12,.4,.11,.75,.53,.71,.96-.15,2.55-.24,5.14-.11,7.7,.55-.87,1.31-1.61,2.21-2.16,1.26-.98,2.43-2.19,3.98-2.72,2.75-.55,5.66,.23,8.39,.73,2.57,.55,5.2,.75,7.82,.81,6.95,.31,12.8-2.19,18.62,3.07,2.24,2.64,4.52,5.45,5.67,8.76Z"/><path class="l" d="M127.88,683.79c-1.58-.24-3.07-1.14-4.1-2.35-.91-1.38-1.22-3.06-2.16-4.44-3.28-4.48-4.56-10.16-4.15-15.66,.18-4.98,2.97-2.95,1.64-2.13-.76,4.07,.27,8.31,1.68,12.13,.68,2.06,2.16,3.68,3.19,5.56,.82,1.32,.93,3.18,2.39,4.01,2.59,1.84,5.89,.38,8.16-1.31,1.33-1.05,1.65-2.79,2.16-4.32,.18-.55,.75-.9,1.32-.73,.56,.16,.89,.76,.73,1.32-.57,1.96-1.16,4.07-2.85,5.39-2.29,1.68-5.1,3.09-8.01,2.53Z"/><path class="l" d="M173.68,717.05c-1.46-.49-2.94-.97-4.4-1.47-2.87-1.1-5.23-3.21-7.44-5.29-4.91-4.83-8.53-11.31-7.93-18.34,.16-5.27,3.55-2.96,1.72-2.32,0,0,0,0,0,0-1.46,7.68,3.25,15.18,8.76,20.17,2.35,2.16,4.94,3.84,8.05,4.59,3.03,1.32,6.21,1.22,9.29,.25,.78-.2,1.57-.31,2.36-.44,.92-.16,1.57,1.03,.98,1.73-.18,.23-.43,.35-.72,.4-3.5,.65-7.11,1.9-10.66,.74Z"/><path class="l" d="M179.21,715.95c-.24,0-.47-.1-.64-.27-3.08,.08-6.13,.63-9.14-.18-3.91-.95-7.39-2.92-10.48-5.47-3-2.01-5.28-4.93-6.68-8.24-1.51-3.71-1.93-7.91-1.06-11.82,.08-.37,.22-1.07,.73-.92,.34,.15,.31,.6,.33,.92,.02,2.35,.01,4.72,.54,7.03,0-.04-.01-.08-.02-.12,.9,4.8,3.75,9.16,7.87,11.79,3.06,2.5,6.47,4.21,10.33,4.97,2.08,.29,4.43,.03,6.44-.06,1.03,.03,2.58-.47,3.13,.69,.35,.86-.46,1.73-1.33,1.67Z"/><path class="l" d="M159.1,708.51c-.28,0-.53-.16-.67-.4-.07-.12-.14-.23-.21-.35-.6,0-1.12-.61-1.32-1.08-.42-.57-.85-1.14-1.24-1.74-.46,.67-1.57,.55-1.86-.22-.21-.46-.36-.95-.47-1.45-.45-1.82-.91-3.65-1.2-5.51-.08-1.75-3.01-8.97,.64-8.2,.53,.18,.87,.67,1.01,1.2,.29,1.05,.64,2.09,.97,3.13,.63,2.32,2.38,4.12,3.22,6.38,.28,.1,.52,.31,.64,.6,.17,.42,.34,.86,.49,1.29,.9,.7,1.93,1.24,2.98,1.59,.2,.07,.33,.27,.27,.48-.26,.79-2.32-.58-2.83-.81,.25,.99,.71,2.06,.45,3.09,.29,.72,.08,1.96-.86,2Z"/><path class="l" d="M170.3,714.49c-1.22-.11-2.17-1.03-3.17-1.66-1.35,.79-2.51-.64-3.43-1.47-1.64-1.75-3.58-3.7-3.86-6.19-.69-.74-1.18-1.65-1.65-2.55-.95,0-1.48-.84-1.76-1.64-.69-1.35-1.38-2.7-2.03-4.07-.28-.06-.53-.26-.65-.54-.58-1.42-1.3-2.8-1.74-4.27-.24-1.12,1.23-1.51,1.73-.55,0-.06,0-.11-.01-.17-.03-.45,.19-.88,.62-1.06,0,0,0,0,0,0-.23-1.2,1.01-2.14,1.92-1.13,.48,.51,.6,1.22,.76,1.88,.45,1.65,.87,3.32,1.29,4.98,.33,2.7,2.33,4.66,3.36,7.1,2.46,.31,4.46,2.54,5.24,4.79,1.13,.9,3.31,2.29,2.67,3.96,.21,.13,.42,.26,.63,.38,0,0,0,0,0,0,1.97-.59,2.04,2.21,.07,2.22Z"/><path class="l" d="M125.95,682.52c-.42-.24-.62-.72-.81-1.14-1.23-2.06-2.28-4.23-3.25-6.43-.58-1.28-1.09-2.59-1.49-3.79-.33-.9-.84-1.8-.65-2.79-.36-1.29-2.01-3.45-.09-4.21,.4-.15,.92-.06,1.17,.32,1.3,1.95,2.56,3.91,3.8,5.89,.05,0,.1,0,.15,0-.12-1.12,1.55-1.59,2.03-.56,.16-.13,.35-.22,.55-.24,.19-.02,.36,0,.52,.07-.26-.81,.58-1.66,1.38-1.34-.12-.59-.2-1.13-.32-1.72-.16-.91,1.04-1.57,1.73-.98,.62,.59,.48,1.6,.71,2.38,.33,1.78,.71,3.56,1.1,5.33,.42,1.25,.34,2.65,.92,3.81,.35,1.17,2.38,3.18,.54,3.91,.15,1.63-2,1.53-2.59,.37-.07,.07-.16,.13-.25,.17-.11,.2-.26,.37-.49,.51-.27,.16-.6,.27-.92,.26-.61,.41-1.42,.22-1.78-.41-.31,.72-1.32,1.01-1.98,.6Z"/><path class="x" d="M137.72,558.81c.26,2.55,1.8,5.44,.21,7.8-1.93,2.7-5.29,3.74-8.28,4.82-1.56,.7-3.24,1.06-4.96,.94-1.75,.04-3.35-.67-4.79-1.6-4.58-2.51-7.61-7.02-9.45-11.79-2.15-4.57-3.56-9.45-4.09-14.48-.18-1.51-.22-3.03-.09-4.54-.84,.87-1.74,1.69-2.59,2.56-3.45,4.36-8.32,7.33-13.62,8.9-3.9,1.29-7.9,3.19-12.1,2.69-5.25-.42-9.41-4.86-7.74-10.22,1.54-4.12,3.91-8.69,7.74-11.07,5.24-2.33,11.05-.93,16.53-.75,2.82,.27,5.69,.71,8.52,.59,.33-.05,.65,.22,.69,.54,.04,.29-.13,.48-.4,.62,.24,.09,.48,.2,.69,.3,1.1,.16,2.25,.8,3.01,1.63,.12,.02,.23,.04,.35,.07,1.06-1.44,4.06,1.11,5.25,1.7,.76-.87,1.91,.04,2.84,.06,.23-.11,.48-.14,.74-.11,.58-.67,1.54-.14,2.22,.22,1.44,.78,2.97,1.27,4.35,2.08,2.54,1.37,4.72,3.26,6.77,5.26,4.02,3.6,7.45,8.35,8.17,13.79Z"/><path class="x" d="M192.7,612.43c1.99,4.68,2.8,10.28-.09,14.77-2.71,3.31-7.59,3.42-11.53,3.1-2.11-.51-4.52-.48-6.32-1.8-2.12-1.99-4.41-3.98-5.88-6.53-.89-1.63-1.62-3.44-2.37-5.1-.3-.6-.59-1.21-.85-1.83-.87,3.66-2.63,7.14-5.5,9.61-1.52,1.23-3.4,2.57-5.45,2.08-2.8-.67-4.4-2.63-5.02-5.37-1.74-5.35-.89-11.13-.02-16.57,.73-3.9,2.17-7.71,4.24-11.09,1.48-1.98,2.89-3.97,4.37-5.93,1.99-2.18,6.04-1.99,7.35,.84,.03,.07,.06,.13,.09,.2,.99-.57,2.13-.5,3.48-.13,1.45,.11,2.82,.54,4.15,1.07,0-.03,.01-.07,.03-.1,.16-.53,.79-.91,1.34-.7,1.66,.64,3.28,1.36,4.95,1.94,1.91,1.43,3.44,3.24,4.45,5.41,1.73,2.97,2.74,6.28,4.38,9.31,1.34,2.35,3.32,4.25,4.23,6.82Z"/><path class="x" d="M148.67,656.67c1.73,5.57,1.79,11.53,1.64,17.31-.35,4.55-.72,13.24-7.19,12.33-3.49-.69-7.39-1.84-9.73-4.68-2.06-2.76-3.38-6.21-3.14-9.69-1.77,1.79-4.49,2.14-6.82,1.38-5.43-1.6-7.14-10.1-5.84-14.97,.96-4.68,2.9-9.13,5.98-12.8,1.07-1.26,2.05-2.61,3.22-3.77,1.01-.87,2.09-1.63,3.08-2.46,.13-.12,.27-.24,.41-.36h0s0-.03,0-.05c.13-.55,.43-.74,.8-.72,.14-.15,.26-.31,.37-.48,.18-.39,.62-.58,1.03-.46,.74,.22,.8,1.31,.08,1.6-.01,.01-.02,.03-.03,.04,.35,.28,.64,.58,.82,.79,.8,.89,1.67,1.72,2.71,2.33,.07,.05,.14,.1,.21,.14,.44-.49,1.09-.75,1.79-.48,1.77,.61,2.74,2.37,4.04,3.6,3.12,3.17,5.31,7.13,6.56,11.38Z"/><path class="x" d="M192.92,709.94c1.32,3.7-.95,5.74-4.44,6.41-2.75,.62-5.56,1.04-8.4,.93-2.52-.33-4.94-1.29-7.38-2-3.76-1.59-6.85-4.38-9.77-7.16-2.71-2.61-4.78-5.78-6.41-9.15-.87-2.05-.76-4.37-.7-6.56,0-.15,.03-.37,.09-.58,0-.31,.02-.62,.07-.91,.15-1.4,.14-2.91,.95-4.12,.4-.53,1.03-1.57,1.72-2.23-.47-.13-.82-.57-.8-1.07,.23-2.21,4.63-.38,5.84,.11,2.78,1.19,4.79,3.44,6.79,5.62,1.38,1.38,3.02,2.43,4.68,3.43,1.93,1.03,3.87,2.05,5.75,3.18,2.65,1.77,5,3.92,7.09,6.31,2.09,2.28,4.3,4.67,4.92,7.8Z"/><path class="x" d="M172.28,710.22c-.68-.31-.18-1.33,.48-.96,.69,.31,.18,1.33-.48,.96Z"/><path class="x" d="M203.88,751.96c1.02,2.1,2.33,4.58,1.17,6.89-1.84,3.61-5.98,6.1-10.06,5.14-.84-.22-1.68-.59-2.41-1.09-1.55,1.75-4.74,2.11-6.99,1.83-5.23-.85-11.4-5.55-13.73-10.26-.62,2.56-3.15,4.35-5.47,5.31-1.87,.52-3.97-.05-5.6-1.01-2.96-2.04-4.05-5.8-4.67-9.16-.2-3.16-.28-6.34-.16-9.5,.35-4.11,1.29-8.16,2.19-12.17,.09-.78,1.19-1,1.57-.31,.12,.31,.26,.73,.3,1.12,.28-.09,.57-.16,.86-.22,1.09-.35,2.31-.61,3.41-.78,1.82-.41,5.8-.68,8.59,.05,.96-.26,2.5,.32,3.31,.39,2.38,.7,4.03,2.76,6.25,3.8,4.72,2.1,9.24,4.94,12.68,8.84,1.3,1.39,2.92,2.46,4.02,4.05,1.94,2.12,3.36,4.6,4.74,7.1Z"/><path class="x" d="M152.51,740.22c.8,2.73,1.58,5.55,1.26,8.42-.37,5.43-4.97,10.4-10.61,10.08-3.45,.21-6.71-1.09-9.52-3.01-2.32-1.69-3.98-4.12-5.94-6.19-1.08-1.37-2.16-2.76-3.08-4.24-.99,2.05-2.42,3.9-4.18,5.37-1.3,1-2.91,1.42-4.41,2.02-1.79,.51-3.7,1.15-5.58,.88-4.7-.86-8.17-4.58-10.82-8.33-.97-2.12-1.41-4.54-1.53-6.85,.22-2.75,1.01-5.45,2.05-7.99,.74-2.2,2.74-3.48,4.21-5.15,1.49-1.57,3.14-2.97,5.02-4.05,1.37-1.06,2.66-2.24,4.23-3.01,.1-.07,.24-.14,.39-.18h0c.15-.19,.36-.33,.61-.38,.88-.25,1.79-.04,2.69-.03,.97-.12,1.94-.22,2.92-.24,5.4-.62,11.03,.89,15.22,4.38,1.19,.55,2.44,.98,3.49,1.8,.92,.52,1.96,.85,2.73,1.62,2.96,2.38,5.69,5.03,7.82,8.2,1.42,2.09,2.43,4.45,3.01,6.9Z"/><path class="x" d="M153.43,799.54c1.13,3.04,2.26,6.34,1.72,9.62-1.53,6.16-6.16,10.57-12.76,10.06-3.98-.06-8.27-.82-11.12-3.84-1.01-1.2-2.29-2.46-2.84-3.97-.38,.72-.86,1.38-1.44,1.98-1.94,1.71-5.16,2.23-7.42,.87-3.15-1.95-3.28-7-.91-9.66-.54-.44-1.06-.9-1.49-1.45-2.14-2.87-2.73-6.53-2.31-10.01,.23-8.55,5.91-18.27,13.45-22.36,.98-.32,1.43,.62,1.24,1.25,2.12,.53,4,1.59,5.89,2.72,1.85,1.18,3.83,2.29,5.23,4,1.12,1.18,1.29,2.97,1.94,4.36,1.01,2.49,3.07,4.37,4.85,6.3,2.54,3.01,4.74,6.37,5.95,10.13Z"/><path class="x" d="M190.65,799.41c2.75,2.86,3.23,7.55,1.31,10.99-.44,1.03-1.35,1.89-2.15,2.61-.95,1.02-2.07,1.85-3.27,2.56-2.08,1.26-4.57,1.41-6.94,1.56-2.03,.14-4.05,.55-6.09,.42-1.84-.1-3.59-.73-5.19-1.61-1.75-.92-3.56-1.82-4.96-3.24-3.42-3.63-5.21-8.53-6.41-13.28-1.07-4.63-.15-9.84-2.71-14.03-.23,.08-.48,.06-.69-.08-.52-.11-.94-.62-1-1.16-.12-.76,.2-1.5,.36-2.23,.35-.87,1.22-1.27,2.02-1.68,.14-.11,.28-.2,.43-.29,.98-.66,2.12-1.05,3.1-1.73,.87-.38,1.82-1.78,2.76-1.03,.06-.03,.12-.07,.18-.1,2.83-1.8,4.56-.15,5.74,2.49,1.31,1.87,1.71,4.23,2.62,6.29,.95,2.36,2.55,4.4,4.38,6.15,.9,.67,1.86,1.12,2.74,1.72,2.75,1.4,5.85,1.84,8.68,3,1.91,.38,3.81,1.2,5.11,2.71Z"/><path class="x" d="M187.81,885.79c-.04,1.96-2.09,3.24-3.24,4.65-2.78,3.36-7.09,5.38-11.47,5.19-5.66-.14-10.68-3.6-13.98-8.02-1.61-1.96-3.52-4.2-3.16-6.92-1.22-.86-.37-2.06,.91-2.16,2.38-.85,4.67-2.67,7.34-1.87,3.07,.62,5.8,2.22,8.65,3.45,2.08,.78,4.35,1.55,6.41,2.28,2.28,.92,7.74,.83,8.54,3.41Z"/><path class="x" d="M176.81,848.9c.34,1.06,.8,2.14,.69,3.28-.76,3.69-5.35,1.81-7.92,1.8-2.56,.04-5.02,.84-7.52,.73-3.26-.22-6.29-1.34-9.13-2.84-1.89-1.12-3.42-2.8-4.72-4.54-1.24-1.78-2.66-3.47-3.63-5.42-.11-.05-.22-.13-.31-.23-.34-.34-.35-.8-.27-1.24-.55-1.59-1.15-3.99,.56-4.09,.44-2.91,1.21-5.77,1.53-8.72,.07-.49,.09-.99,0-1.48-.37,.09-.82-.1-.94-.5-.16-.57,.3-1.03,.99-1.38,.18-.15,.41-.25,.64-.27,1.14-.43,2.54-.65,3.12-.71,4.11-.29,12.2,2.45,14.82,5.7,3.23,4.34,7.44,8,9.41,13.16,1.13,2.15,1.98,4.44,2.68,6.77Z"/><path class="x" d="M152.44,897.53c1.1,3.79,.59,10.12-4.49,10.24-2.42-.03-4.49-1.5-6-3.29-.75-.93-1.49-1.92-2.59-2.46-.88-.39-1.31,.83-1.72,1.4-.42,.66-.9,1.3-1.49,1.82-3.07,2.63-6.33-1.56-7.77-4.07-1.73-2.98-3.05-6.39-2.96-9.87,.16-3.15,1.49-6.79,5.3-6.25,2.08,.2,3.7,1.56,5.52,2.43,2.14,.76,4.54,.36,6.66,1.32,2.03,.62,3.61,2.02,5.11,3.47,1.62,1.61,3.62,3.03,4.41,5.26Z"/><path class="x" d="M139.25,948.73c.87,4.12-.62,8.17-5.55,6.95-7.65-2.56-7.97-13.13-7.78-19.9,.09-1.59,.66-6.46,3.06-5.53,1.02,.59,1.75,1.54,2.56,2.37,2.64,2.17,3.75,5.37,4.97,8.45,1.05,2.5,2.35,4.95,2.75,7.67Z"/><path class="x" d="M158.62,943.16c1.3,3.1,3.82,7.04,2.05,10.36-.52,.88-1.38,1.81-2.49,1.7-2.89,.23-4.64-2.18-6.19-4.23-2.42-3.59-4.84-8.02-3.86-12.48,1.19-4.25,4.39-2.69,6.85-.54,1.6,1.4,2.56,3.39,3.62,5.2Z"/><path class="x" d="M140.92,995.25c-3.71-1.1-4.95-5.9-4.05-9.29,.33-.8,1.13-1.23,1.97-1.33,.37-.25,.8-.37,1.24-.36,1.8,.34,2.69,2.42,3.56,3.85,1.57,2.63,1.56,7.92-2.72,7.13Z"/><path class="x" d="M148.21,1039.44c-5.1-1.36-6.51-11.91-.94-13.59,1.9-1.22,3.55,.78,4.35,2.36,1.94,3.57,2.76,12.13-3.41,11.23Z"/><path class="x" d="M132.72,1068.12c-1.97-1.37-2.18-4.89-1.38-6.97,.64-1.76,2.44-2.6,3.49-4.07,.03-.63,.94-.83,1.23-.27,2.77,.38,2.31,4.94,2.31,7.02-.04,2.98-2.66,5.6-5.65,4.29Z"/><path class="x" d="M110.49,1074.98c3.12-1.65,1.99,4.73,1.47,6.16-1.45,3.69-4.66,8.36-9.08,8.18-2.06-.35-2.01-2.87-1.85-4.5,0-3.03,1.97-5.5,4.33-7.2,1.57-1.08,3.21-2.31,5.14-2.64Z"/><path class="x" d="M129.43,1071.71c.23,2.74,.53,7.78-3.42,7.57-4.71-.97-6.24-7.26-6.15-12.93-1.79,2.54-4.42,4.53-7.34,5.48-1.46,.57-3.13,1.27-4.68,.71-2.68-1.23-1.64-4.09-.33-5.91,.65-1.41,1.75-2.5,2.77-3.63,1.39-1.34,3.42-1.98,4.93-3.08,1.68-1.23,3.19-2.76,5.17-3.47,.41-.32,.92,.32,.52,.65-.07,.08-.14,.15-.22,.23,.06,.02,.12,.04,.18,.08,.25-.66,.69-1.06,1.56-.62,.35-.14,.76-.12,1.23,.15,1.74,1.36,2.65,3.64,3.29,5.7,.97,3.02,2.18,5.92,2.5,9.08Z"/><path class="x" d="M108.75,1007.81c-2.7-.76-3.1-3.73-2.05-5.99,.58-1.42,1.57-3.87,3.36-3.85,.79,.06,.66,1.26-.12,1.15-1.43,1.26-3.57,6.87-.17,6.72,2.26-.98,3.06-4.41,1.28-6.19-1.08-.89,.29-2.55,1.37-1.65,1.44,1.34,2.14,3.66,1.57,5.57-.63,2.24-2.63,4.89-5.25,4.24Z"/><path class="x" d="M59.44,580.52c1.28,4.08-1.6,8.06-4.28,10.88-1.88,1.98-4.18,3.47-6.31,5.14-1.44,1.15-2.85,2.36-4.48,3.23-4.17,2.25-9.05,2.91-13.73,3.14-3.5,.1-6.71-1.5-9.93-2.64-4.55-1.42-8.66-4.28-11.42-8.19-1.89-2.7-2.58-6.02-3.17-9.21-1.59-6.25,1.05-8.55,7.07-9.2,2.76-.36,5.46-1.13,7.81-2.66,2.44-1.89,4.95-4.02,8.09-4.53,5.05-.92,9.89,.63,14.35,2.92,2.62,1.06,5.34,1.91,7.71,3.49,1.95,1.29,4.16,2.31,5.78,4.03,1.3,.66,1.92,2.32,2.5,3.59Z"/><path class="x" d="M140.97,622.43c2.77,9.7-5.56,13.5-13.92,12.85-5.8-.06-11.33-3.38-15-7.73-2.48-3.63-3.68-8.05-4.17-12.38-2.77,5.45-6.11,11.46-12.19,13.65-5.52,2.07-11.21-.73-13.1-6.28-1.23-3.42-1.02-7.22-.36-10.75,.28-.89,.55-1.9,.92-2.86-1.78,.27-3.61,.29-5.42,.21-3.85-.35-8.01-1.53-10.81-4.32-1.45-1.92-1.45-4.58-1.31-6.88,1.21-5.75,8.05-8.76,13.12-10.41,1.82-.65,3.81-1.1,5.67-1.51,4.11-.98,8.19-2.22,12.42-2.58,4.14-.29,8.25,.56,12.38,.68,2.02,.04,4.05,.01,6.06,.2,.5,.03,.67,.45,.68,.87,.55,.28,1.06,.67,1.49,1.09,1.71,2.01,1.56,5.14,2.71,7.41,1.54,4.93,4.75,8.97,8.48,12.45,4.82,4.78,9.85,9.87,12.36,16.29Z"/><path class="x" d="M71.85,633.29c1.54-.43,2.21,2.08,.72,2.61-.68,.26-1.43,.11-2.13,.28-1.63,.56-2.91,1.8-4.29,2.79-3.09,2.61-6.61,4.66-9.88,7.01-2.54,1.47-4.9,3.31-7.65,4.39-2.94,.96-6.15,1.25-9.21,.86-9.41-1.69-6.69-9.87-18.26-6.64-2.74,.54-5.5,1.64-8.32,1.26-3.21-.39-5.45-3.57-5.25-6.7,.32-2.1,1.2-4.15,2.26-5.98,1.65-3.28,5.11-4.66,8.07-6.45,2.81-1.71,6.21-1.86,9.4-2.24,2.42-.33,4.86-.53,7.31-.31,3.63,.34,7.31-.57,10.87,.59,3.29,.71,6.79,.78,9.73,2.55,1.47,.88,2.94,.05,4.41-.31,2.07-.23,4.14,.54,6.09,1.14,2.52,.89,4.46,2.97,5.98,5.11,.06,0,.11,.02,.16,.04Z"/><path class="x" d="M93.48,675.36c1.89,6.88-8.83,12.29-14.52,10.43-4.21-.8-7.35-3.9-10.8-6.2-1.6-.98-3.37-1.65-5.11-2.35-2.76-.62-5.68-.22-8.36-1.25-7.1-1.88-8.27-12.84-5.85-18.66,.75-1.95,2.28-3.66,4.44-3.94,1.92-.35,3.62-1.03,5.57-.8,2.57,.21,4.95,1.24,7.36,2.08,2.19,.66,4.43,1.26,6.44,2.38,3.04,1.56,4.87,4.56,7.06,7.06,2.13,2.35,4.74,4.39,7.87,5.16,3.25-.22,5.04,3.46,5.91,6.1Z"/><path class="x" d="M54.9,723.18c5.25-2.36,3.96-9.72,2.61-14.19-.38-.91-.88-1.74-1.43-2.54l.18,.62c.56,1.72,.81,3.62,.26,5.37-.64,1.82-1.79,3.38-2.54,5.15-.92,1.85-1.79,4.01-3.77,4.92-.24,.13-.48,.27-.72,.41,1.82,.06,3.65,.81,5.42,.27Zm4.07-16.2c2.39,5.43,3.54,15.05-2.94,18.04-2.35,1.19-4.92-.14-7.37,.01-1.52,.1-2.8,.76-4.17,1.27-.61,.36-1.26,.67-1.94,.9-2.59,.88-5.09,2.15-7.92,1.77-2.67,.06-5.09-1.3-7.52-2.24-2.08-.98-3.17-3.19-4.07-5.19-1.81-3.88-.67-8.13-.69-12.19-1.1-6.77-6.78-11.32-10.86-16.38-5.02-5.12,1.1-13.53,7.03-14.37,4-.18,7.69,1.73,11.34,3.1,1.83,.61,3.63,1.04,5.37,1.82,3.8,1.74,6.81,4.77,9.87,7.53,.61,.57,1.17,1.19,1.72,1.83,1.73,1.02,3.41,2.12,4.72,3.67,1.67,1.79,2.87,3.96,4.25,5.98,1.06,1.47,2.3,2.84,3.15,4.44Z"/><path class="x" d="M34.6,765.19c3.02,1.41,12.72,2.11,9.47,7.28-.75,1.14-2.21,1.12-3.42,1.18-1.58,.23-2.95,1.12-4.08,2.21-4.29,4.14-6.49,10.23-13.68,9.08-3.47-1-7.15-2.54-9.4-5.49-1.41-2.56-2.34-5.46-2.8-8.36-.26-1.97-.04-4.26-1.58-5.77C5.16,762.05-.04,761.3,0,754.83c.25-2.18,1.41-4.44,3.4-5.49,1.82-1.08,3.75-2.13,5.9-2.33,2.56-.18,5.14,.62,7.4,1.77,2.37,1.26,4.1,3.33,5.55,5.53,1.48,1.96,2.91,3.96,4.2,6.04,.85,.09,1.33,1,1.99,1.46,1.82,1.48,4,2.48,6.16,3.38Z"/><path class="x" d="M102.2,919.73c.38-1.47,.71-2.94,.82-4.44-1.34,3.08-3.45,6.06-6.97,6.57-.27,.12-.55,.25-.82,.38,.05,.34-.08,.71-.48,.88-.12,1.21-.02,2.61,.55,3.7,2.15,1.78,4.95-.79,5.73-2.87,.6-1.43,.87-2.75,1.17-4.23Zm2.99-8.95c.06,3.06,.1,6.11-.82,9.07-.6,4.42-3.21,10.64-8.66,9.46-1.7-.4-2.63-2-2.66-3.68-.04-.6-.13-1.49-.04-2.3-.8,.32-1.62,.53-2.51,.47-1.24-.1-2.34-1.02-2.85-2.13-.4-.95-.17-2.01-.31-3.01-.18-1.5-.75-3.01-.36-4.53,.3-1.24,.86-2.39,1.51-3.49,2.34-4.46,8.11-8.62,13.14-6,.37-.76,1.59-.73,1.92,.07,.26,.67,.52,1.35,.74,2.03,.57,.55,.34,2,.53,2.72,0,.19,.01,.37,.03,.56,.2,.19,.34,.45,.35,.75Z"/><path class="x" d="M107.01,977.77s.04,.01,.06,.02c-.03-.01-.06-.03-.09-.06,.02,.02,.04,.03,.03,.04Zm.18,.06s-.07-.01-.1-.03c0,0,.01,0,.02,.01,0,0,.01,0,.02,0,0,0,0,0,.06,0Zm4.51-8.04c1.49,3.13-.98,11.79-5.55,9.84-2.76-1.83-2.01-5.87-.49-8.3,.92-1.32,2.43-3.23,4.24-2.7,.87-.33,1.38,.55,1.8,1.17Z"/><path class="x" d="M108.5,1043.25c.8,1.18,.03,2.46-.57,3.54-1.39,2.71-5.48,6.3-8.68,4.94-3.38-1.66-.9-5.77,1.09-7.57,1.37-1.57,3.45-2.12,5.46-2.15,1.07,.08,3-.41,2.7,1.24Z"/><path class="x" d="M120.18,1018.64c1.46,3.56-2.16,14.1-6.71,13.76-2.8-.64-2.12-4.82-1.63-6.91,.66-2.88,2.02-5.98,4.87-7.25,.97-.36,2.45-1.27,3.27-.25,.15,.18,.27,.41,.2,.64Z"/><path class="x" d="M109.73,1006.78c-3.69,.04-2.54-4.14-1.43-6.28,.8-1.58,3.29-2.77,4.03-.51,1.69,.07,.92,2.03,.7,3.06-.18,1-.66,1.88-1.3,2.65-.38,.72-1.16,1.29-2,1.08Z"/><path class="x" d="M73.53,876.77s-.02-.08-.03-.12c-.12,.07-.25,.14-.37,.21,.13-.04,.26-.06,.4-.09Zm11.13,.2c.66-.66,2.09-.15,1.82,1.01-.9,2.94-.28,6.09-.87,9.09-.72,4.27-2.56,8.31-4.82,11.97-1.68,2.79-4.13,4.97-6.35,7.31-2.49,2.43-10.83,10.03-14.23,7.41-2.03-1.33-.45-3.77-.57-5.69,.06-2.72-.94-5.33-.97-8.04,.06-3.57,1.2-7.02,2.47-10.32,2.21-5.53,5.43-11.06,10.66-14.22,.92-.57,2.4-1.39,3.27-.33,.24,.36,.4,.9,.36,1.36,.14-.01,.27-.03,.4-.04,.85-.52,1.85,.22,2.76,.22,.39-.44,1.15-.38,1.66-.13,.63-1.13,1.99-.61,2.89-.14,.69-.07,1.2,.16,1.54,.53Z"/><path class="x" d="M75.39,821.01c.83,6.12,1.21,12.57-1.59,18.28-1.09,2.35-2.71,4.43-4.94,5.77-1.15,.85-2.2,1.94-3.6,2.36-2.23,.49-4.62,.58-6.88,.23-1.88-.38-3.61-1.13-5.47-1.54-1.24-.15-2.7-.12-3.84-.19-1.82-.06-3.63-.12-5.44-.05-6.82-.17-8.94-5.88-8.31-11.86,.59-4.85,4.15-7.93,8.52-9.56,1.93-.78,3.98-1.19,5.97-1.79,2.47-.91,4.79-2.18,7.22-3.18,2.48-.87,4.68-2.22,6.23-4.39,1.13-1.34,2.15-2.8,2.46-4.55,.01-.6,.46-1.37,1.14-1.01,.32,.17,.44,.59,.28,.91-.08,1.01-.33,2-.74,2.92,.24-.1,.52-.11,.78,0,.38-.62,1.02-.24,1.43,.11,.52,.31,1.81,1.11,.83,1.63,.33,.77,.64,1.55,.91,2.34,.89,.58,1.33,1.66,1.76,2.6,.56,.08,.96,.56,1.15,1.07,.01,0,.02,.02,.03,.03,.03-.21,.08-.41,.19-.59,.5-.75,1.82-.45,1.92,.46Z"/><path class="n" d="M90.79,729.07c1.8,5.09,2.63,9.61,1.14,14.92-.52,1.94-1.32,3.87-2.59,5.45-2.67,2.82-6.75,4.65-10.66,4.15-3.98-1.19-8.36-3.39-9.94-7.5-.72-1.95-1.43-4.23-1.31-6.38-3.45,3.8-6.99,6.99-12.66,6.6-3.86-.36-8.27-2.31-9.8-6.1-.67-3.4,1.72-6.78,4.56-8.43,1.8-1.08,3.21-2.73,5.14-3.58,1.13-.46,2.35-.58,3.54-.8,.02-.28,.14-.55,.39-.74,.64-.46,1.49-.1,2.23-.23,.41-.03,.82-.1,1.22-.17,0,0,0,0,.01,0,.66-.19,1.29-.33,1.72-.27h0c.27-.02,.54-.03,.82,0,2.33,.18,4.7,.31,7.01,.68,2.96,.56,5.98,1.31,9.01,1.05,2.33-.21,4.58-.93,6.9-1.15,1.8-.38,2.88,.86,3.26,2.5Z"/><path class="n" d="M57.51,708.98c1.35,4.47,2.64,11.84-2.61,14.19-1.78,.55-3.6-.21-5.42-.27,.24-.14,.48-.28,.72-.41,1.98-.91,2.86-3.08,3.77-4.92,.75-1.77,1.91-3.33,2.54-5.15,.55-1.75,.3-3.65-.26-5.37l-.18-.62c.55,.8,1.05,1.63,1.43,2.54Z"/><path class="s" d="M130.54,546.96c-.11-.11-.22-.22-.32-.33-.09-.12-.19-.24-.29-.35-.26-.34-.52-.69-.79-1.03-.31-.38-.67-.88-1.13-1.08,.56-1.89,.98-3.32,1.31-5.15,1.03-5.5,3.07-10.79,4.89-16.07,1.84-4.1,3.98-8.06,5.9-12.13,1.26-2.54,2.82-4.9,4.4-7.24,1.56-2.43,2.7-5.13,4.51-7.39,3.81-4.54,7.23-9.42,11.49-13.58,4.27-4.32,8.74-8.42,13.9-11.68,21.28-15.09,45.95-25.68,71.71-30.05,7.75-1.18,15.62-1.28,23.42-1.94,2.8-.13,14.01-1.81,11.66,2.96-.62,.73-1.79,.74-2.43,.02-1.06-.37-2.22-.28-3.32-.3-12.84,.93-25.79,1.68-38.31,4.88-24.39,6.27-47.63,17.49-67.37,33.15-7.07,6.23-12.97,13.27-18.51,20.8-1.9,3.57-4.22,6.92-6.3,10.36-2.49,4.74-4.88,9.55-7.08,14.43-1.39,4.18-2.81,8.35-3.98,12.59-.47,2.61-1.04,5.21-1.89,7.73-.22,.66-.35,1.47-.57,2.22-.27-.3-.58-.55-.89-.82Z"/><path class="s" d="M114.37,590.51h0s0,0,0,0h0Z"/><path class="s" d="M117.93,588.24c-.09-.24-.18-.48-.31-.69-.07-.13-.16-.24-.25-.36-.07-.2-.15-.39-.24-.58-.2-.42-.44-.8-.77-1.12-.18-.17-.35-.32-.55-.45,.75-2.95,1.77-5.84,2.71-8.69,.34-.64,.83-4.03,1.61-5.44,0,0,.02,0,.03,.01,.22,.08,.45,.15,.67,.21,.2,.06,.4,.12,.61,.15-.03,.22-.15,.4-.43,.42-.68,4.71-2.16,9.27-2.67,14-.07,.94-.18,1.87-.3,2.8-.03-.09-.06-.18-.09-.27Z"/><path class="s" d="M173.33,593.27c-2-.74-3.37-2.53-5.22-3.53-2.53-1.81-10.02,1.1-10.42-2.56,1.4-6.52-2.27-12.86-5.27-18.42-2.08-4.04-5.28-7.31-8.13-10.79-2.22-2.84-4.15-5.95-5.62-9.25-1.1-2.87-1.8-5.88-2.42-8.88-.3-1.88-3-18.1,.5-16.17,1.69,.14,1.38,3.01,1.69,4.25,.33,3.05,.62,6.11,1.12,9.14,1.39,3.68,2.33,7.56,4.05,11.08,1.54,2.91,3.74,5.67,5.43,8.44,2.37,3.71,6.21,6.03,9.33,9.04,2.94,3.19,6.36,5.95,9.11,9.31,1.44,2.05,2.58,4.29,3.97,6.38,1.27,1.73,2.76,3.31,3.71,5.26,1.17,2.08,1.75,7.18-1.84,6.72Zm-12.51-6.32c-.29-.12-.58-.27-.85-.44-.02,.12-.05,.24-.07,.36,.3,.06,.61,.07,.92,.08Zm2.35-1.79s.06,0,.09,0c0-.02,0-.05,0-.07,0-.02,0-.05,0-.07,0,0,0,0,0,0-.04,.05-.09,.11-.14,.15,.02,0,.05,0,.07,0Z"/><path class="s" d="M64.59,589.37c-.83-.99,.36-1.83,1.1-2.38,.92-.77,1.86-1.5,2.87-2.13,4.48-3.12,9.7-4.88,15.03-5.86,4.6-.95,9.29-1.74,14-1.51,3.65,.22,7.04,.05,10.55-1.05,3.56-.96,7.06-2.36,9.75-4.95,.23-.47,.48-.93,.76-1.37,.09,.08,.19,.16,.29,.22,.18,.11,.37,.22,.56,.31-.08,.18-.15,.36-.22,.55,.96,.43,.68,1.62,.44,2.4-.75,2.94-.8,6-1.56,8.95-.26,1.56-.5,3.13-.74,4.7-.02-.02-.04-.05-.06-.07-.07-.19-.15-.39-.24-.57-.2-.42-.44-.8-.77-1.12-.22-.22-.45-.4-.72-.55,0,0,.02,0,.03,.02-.01,0-.03-.01-.04-.02,0,0,0,0,0,0,0,0-.01,0-.02,0-.02-.01-.04-.02-.05-.03,.01,0,.03,.02,.04,.02-.12-.06-.24-.1-.37-.14,0,0,.01,0,.02,0-.01,0-.02,0-.03,0-.03,0-.06-.02-.1-.02,.02,0,.03,0,.05,.01-.07-.01-.13-.02-.2-.03,.44-3.12,.56-6.28,1.33-9.33-3.62,2.3-7.91,3.27-12.07,4.12-1.91,.28-3.84,.2-5.77,.13-1.6-.06-3.21-.13-4.8,.02-9.8,.92-20.11,2.91-27.55,9.76-.2,.19-.46,.28-.72,.28-.3,0-.59-.12-.8-.35Z"/><path class="s" d="M114.97,587.68s0,0,.01,0c0,0,0,0-.01,0Z"/><path class="s" d="M115.61,584.93s0,0,0,0c0,0,0,0,0,0,0,0,0,0,.01,0,0,0-.02,0-.03-.01Z"/><path class="s" d="M136.19,643.35c-2.05-1.47-4.6-3.17-4.73-5.92-.02-.58,.82-.55,.66,.03,.06,.13,.12,.26,.17,.34,.01,.02,.03,.04,.04,.07,.11-.1,.24-.18,.38-.23,0,0,.01,0,.02,0,0-.11,.03-.23,.06-.34,.04-.18,.13-.34,.24-.47,.02-.66-.48-1.41-.33-1.99,.12-.02,.24-.04,.36-.07,.09-.02,.18-.03,.27-.05,.17-.03,.34-.05,.51-.07,.02,0,.03,0,.05,0h.03c.09,0,.17-.02,.26-.04,.09-.02,.18-.05,.25-.1,.54,.62,.61,1.95,.76,2.68,1.02,1.23,2.27,2.15,2.9,3.62,.53,1.21,.16,2.78-1.02,2.78-.25,0-.55-.07-.87-.24Z"/><path class="s" d="M79.43,630.46c.05,.85-.89,1.04-1.35,1.58-.07,.99-1.27,1.13-1.99,1.5-1.79,.75-3.59,1.61-5.49,2.01-.52-.05-.69-.68-.35-1.03,.37-.33,.93-.4,1.37-.64-.02-1.38,1.83-1.6,2.8-2.1,1.34-.41,2.32-1.41,3.45-2.18,.66-.31,1.54,.09,1.57,.86Z"/><path class="s" d="M152.54,692.47c-3.49-1.98,1.43-8.59-2.49-15.53,0-.28,0-.55,.02-.83,.02-.5,.04-.99,.07-1.49,.02-.24,.03-.49,.05-.73,0-.13,.02-.26,.03-.39,.67,.74,1.35,1.49,2.08,2.17,2.65,1.8,5.2,3.8,6.79,6.66,.52,.92,1.14,1.84,1.34,2.89,.2,1.96-.94,3.88-2.43,5.08-.98,.61-2,1.62-3.11,2.12-.4,.18-.8,.29-1.22,.3h0s-.04,0-.06,0c-.35,0-.7-.07-1.07-.24Zm.17-12.84s0,0,0,0c.31,.88,.51,1.79,.62,2.71,.03,.25,.06,.5,.08,.76h0c.12,1.45,.06,2.91-.09,4.36-.01,.17-.02,.35-.04,.52h0c-.05,.59-.11,1.18-.12,1.77,0,.14,0,.29,0,.43,0,.04,.02,.09,.04,.14,.06,.18,.18,.37,.38,.38,.33-.03,.6-.18,.86-.38,.32-.24,.61-.53,.95-.73,.09-.05,.18-.11,.27-.17h0c1.19-.75,2.39-1.85,2.65-3.25,.02-.1,.03-.2,.04-.3,.01-.14,.01-.28,0-.43-1.05-2.58-2.84-4.81-5.04-6.5-.42-.33-.86-.63-1.31-.92,.28,.52,.51,1.06,.7,1.6Z"/><path class="s" d="M154.9,687.24c1.13,.19,.95,1.26,.77,2.18h0c-.05,.26-.1,.5-.13,.71-.06,.29-.11,.57-.16,.86-.09,.43-.19,.86-.38,1.26-.03,.05-.06,.1-.1,.15-.29,.37-.81,.49-1.22,.3h0c-.13-.06-.25-.15-.34-.26-.43-.62-.27-1.38-.12-2.13,.03-.15,.06-.3,.08-.45,.04-.26,.07-.52,.05-.77-.01-.37-.03-.74-.05-1.11h0c-.08-1.19-.23-2.38-.44-3.55-.26-1.43-.62-2.85-1.08-4.21-.53-.31-.2-1.2,.4-1.03,.01,0,.03,0,.04,.01,.2,.1,.37,.24,.5,.41,0,0,0,0,0,0,.46,.57,.59,1.44,.83,2.1,.48,1.83,.96,3.66,1.35,5.51Z"/><path class="s" d="M158.31,683.61c.69,.59,.29,1.51,.04,2.26-.03,.08-.05,.15-.07,.23l.03,.08c.57,1.29-.68,2.1-1.51,2.87,.19,.85-.17,2.01-1.2,1.98-.08,0-.16-.02-.23-.03-.34-.08-.64-.31-.87-.59-.02-.03-.04-.06-.06-.09-.05-.07-.1-.14-.14-.21-.45,.07-.78-.03-1.02-.24-.04-.04-.08-.08-.12-.13-.57-.7-.45-2.19-.44-3.04,.09-.7,0-1.52,.11-2.26,.07-.45,.23-.87,.55-1.2,0-.04,0-.09,.01-.13h0c.02-.2,.04-.4,.06-.61-.05-.05-.1-.1-.14-.15-.23-.26-.43-.54-.58-.86-.22-.43-.3-.98-.19-1.46-.12-.28-.25-.55-.4-.82-.36-.7-.76-1.37-1.13-2.07-.1-.19-.16-.41-.08-.62,.18-.7,1.31-.17,1.09,.42h0c.48,.64,.89,1.31,1.28,2,.99-.66,2.18,.15,2.32,1.24,.76,.28,1.02,1.22,1.41,1.87,.77,.09,1.22,.83,1.26,1.56Z"/><path class="s" d="M136.43,779.81c-3.48-.2-6.85-2.4-8.13-5.68-.62-2.07-1.28-4.37-.73-6.51-.53-1.27,.55-1.75,1.76-1.98,.69-.76,1.89-.95,2.42-1.92,.73-1.29,1.16-2.73,1.79-4.08,.29-.63,.53-1.39,1.17-1.76,.11,.1,.23,.19,.36,.27,.22,.13,.46,.24,.7,.31,.18,.06,.37,.13,.57,.15,.27,.67,.38,1.56,.55,2.11,.43,1.46,1.1,2.84,1.66,4.26,1.67,.53,1.82,2.73,2.1,4.16,.85,3.67,1.46,10.68-3.75,10.68-.15,0-.3,0-.45-.02Z"/><path class="s" d="M152.9,783.78c-5.78-1.62-3.96-9.16-5.33-13.61-.33-1.94-.61-3.92-1.35-5.77-.39-.97-.83-1.91-1.25-2.86,.03,0,.06,0,.09,.01,.03,0,.06,.02,.1,.02,.14,.03,.28,.05,.41,.05s.27-.02,.4-.05c.29-.02,.57-.04,.86-.05,.33,0,.71,0,1.05-.08,.89,2.21,2.27,4.16,3.33,6.29,2.53,4.09,8.16,3.61,11.67,6.41,1.73,1.21,2.51,4.17,.54,5.51-.66,.42-1.48,.49-2.17,.84-2.36,1.32-4.77,3.33-7.58,3.33-.25,0-.51-.02-.76-.05Z"/><path class="s" d="M60.81,776.07c.17,.35,.12,.68-.04,.94,0,0,0,0,0,.01-1.77,3.16-5.24,10.05-9.48,9.61-1.43-.34-2.65-1.43-3.36-2.69-.81-2.17-.89-4.6-2.06-6.66-1.8-2.89-2.74-6.22-4.14-9.29-.11-.31-.47-.89,.04-.99,.04,.01,.08,.03,.12,.05-.01-.82,1.23-1.19,2.04-1.23,1.32-.32,2.68-.06,3.87,.55,.68,.36,.61,1.13,.21,1.55,.46,.75,.28,2.15,.82,2.86,.76,1.34,1.92,2.73,2.77,.59,.36-.69,.46-1.57,.86-2.23-.47-.12-.72-.84-.13-1.22,.4-.25,.89-.25,1.34-.26,.88,.04,2.6-.45,2.66,.85,1.11,.77,2.01,2.62,2.52,3.51,.76,1.31,1.57,2.59,1.97,4.06Z"/><path class="s" d="M114.6,539.98c-2.08-.59-3.77-2.19-5.97-2.52-2.13-.4-4.37-.25-6.4-1.09-2.09-.87-2.19-2.93-.05-3.86,1.17-.6,2.48-.78,3.77-.98,1.16-.91,1.84-2.52,2.95-3.59,2.32-2.81,5.28-4.93,8.46-6.65,5.28-2.95,10.56-5.89,15.89-8.75,5.22-2.6,10.26-6.14,13.25-11.25-.4-.65,.64-1.33,1.2-1,.46-.63,1.33-1.16,1.99-.47,.41,.42,.38,1.09-.03,1.5-1.53,1.54-2.85,3.27-4.14,5-1.84,2.06-4.12,3.69-6.15,5.56-3.02,2.55-6.74,3.95-10.34,5.46-1.84,1.13-3.67,2.27-5.52,3.37-3.14,1.9-6,4.2-8.88,6.45-1.64,1.38-3.17,3.07-3.72,5.16-.13,2.39,3.21,2.46,4.74,3.43,2.41,1.24,1.91,4.62-1.05,4.24Zm.29-2.14c-.35-.33-.82-.47-1.26-.64,.42,.21,.8,.52,1.26,.64Zm-8.24-2.8c.85,.07,1.7,.15,2.54,.34,.42,.09,.83,.21,1.24,.34-1.39-.98-2.12-2.77-1.48-4.4-1.78,3.14-3.03,1.91-5.78,3.1,1.11,.42,2.31,.49,3.48,.62Z"/><path class="s" d="M103.36,536.04c-.82-.2-.99-1.3-.4-1.84,.45-.42,1.11-.39,1.67-.5,0-1.12,1.36-1.32,2.24-1.2,.49-.94,1.93-.98,1.69,.29,1.77,.6,1.35,2.48-.5,2.51-.79,.09-1.56,.27-2.33,.38-.77,.18-1.57,.54-2.37,.35Z"/><path class="s" d="M111.89,538.25c-.94-.37-1.77-.98-2.62-1.5-1.28-.56-2.53-1.51-2.76-2.98-.13-.97-.14-2.4,.97-2.78,.32-.77,.95-1.8,1.92-1.25,.5,.29,.66,.95,.37,1.45-.4,.7-.83,1.38-.94,2.19,1.39,.65,2.72,1.44,4.03,2.23,.6,.4,1.58,.76,1.48,1.63-.07,.65-.77,.93-1.35,.85-.31,.26-.73,.31-1.1,.17Z"/><path class="s" d="M114.88,539.38c-.49-.21-.87-.62-1.13-1.08-.07,0-.13,.02-.14,.01-.18,.04-.39,.09-.5,.22,0,.49-.74,.57-.85,.1-.12-.82,.82-1.21,1.43-1.49,.16-.27,.46-.42,.76-.42,.55-.04,.67,.53,1.05,.76,1.36,.38,.69,2.41-.63,1.9Z"/><path class="s" d="M119.41,572.29s-.03-.01-.04-.02c-.36,.03-.72-.18-.87-.52-.62-.29-.54-1.04-.12-1.47,.04-.09,.1-.18,.16-.26,.12,.12,.26,.24,.41,.33,.38,.24,.78,.43,1.2,.58,.22,.08,.45,.15,.67,.21,.06,.02,.12,.04,.19,.05-.23,.6-.61,1.18-1.2,1.18-.12,0-.25-.02-.39-.08Z"/><path class="t" d="M109.31,1077.08c-.26-.61,.21-1.33,.88-1.33,.24-.03,.47-.1,.7-.17,2.79-1.46,5.12-3.52,6.34-6.42,1.68-3.29,2.24-6.95,3.31-10.45,.06-.27,.12-.54,.18-.8-1.72-1.41,.18-3.16,.96-4.58,.96-1.55,1.57-2.9,2.26-4.49,2.81-7.4,2.56-15.47,2.81-23.27-.01-.72-.03-1.44-.05-2.16-1.64,3.65-3.14,7.42-5.61,10.59-2.35,3.15-5.77,5.14-9.1,7.11-1.54,.86-3.17,1.48-4.44,2.74-.1,.33-.48,.52-.8,.38-1.57-.91,2.98-3.52,3.73-3.98,10.55-6.35,10.61-10.01,15.52-20.37,.13-.31,.31-.64,.53-.89-.1-2.16-.2-4.32-.28-6.48-.28,.81-.63,1.6-1.07,2.33-1.02,1.75-2.7,2.8-4.42,3.73-.77,.52-1.79,1.77-2.67,.73-1.27-1.99,4.07-3.16,4.91-4.73,1.51-1.66,2.08-3.93,2.54-6.08-.13-.34,0-.68,.24-.89-.49-3.81-1.06-7.61-1.28-11.45-.18-2.57-.47-5.13-.79-7.68-2.17,2.63-4.35,2.12-8.18,3.56-1.37,.62-2.29,1.84-3,3.13-.5,1.03-1.32,2.07-1.19,3.26,.02,1.29-2.02,1.31-2,0,0-1.3,.62-2.47,1.18-3.6,1.03-2.23,2.68-4.24,5.07-5.05,1.95-.76,4.4-.68,6.02-2.12,.59-.78,1.13-1.59,1.66-2.42-.7-4.98-1.5-9.96-2.05-14.96-.73-7.13-1.48-14.26-2.66-21.33-.31,.49-.58,.99-.85,1.5-3.03,4.88,1.17,10.62-1.27,15.62-.67,1.63-1.88,3.02-3.45,3.85-.91,.41-2.36,1.49-3.01,.18-.23-.54,.04-1.17,.57-1.4,6.61-2.34,4.06-8.91,3.91-14.14,.15-2.62,1.52-5.02,2.91-7.18,.22-.3,.45-.73,.73-1.06-1.56-8.78-3.56-17.47-5.09-26.25-1.55-9.22-2.6-18.51-3.73-27.79-.95,1.4-1.87,2.85-2.46,4.44-.6,1.66-.8,3.46-1.43,5.11-.45,1.22-2.87,5.18-4.25,3.23-.28-.51-.05-1.17,.47-1.41,.77-.79,1.52-1.64,1.91-2.69,.91-3.17,1.68-6.41,3.89-8.92,.43-.48,.97-1.43,1.61-1.91-.13-1.09-.27-2.17-.41-3.26-1.13-11.03-3.1-21.93-5.07-32.82-.55,.85-1.09,1.57-1.34,1.95-1.73,2.54-3.58,4.99-5.39,7.48-2.01,3.2-3.31,6.91-3.44,10.7-.08,2.87,.04,5.77-.37,8.62-.22,2.79-1.13,5.93-4.55,5.72-2.94-.55-1.8-4.66-1.87-6.8,.63-4.04-1.97-4.09-5.15-4.52-.62-.02-1.26,.03-1.91,.07-1.77,.12-3.56,.24-5.04-.9-1.26-.79-2.52-3.21-.33-3.62,4.57-.38,8.7-2.49,11.29-6.29,1.15-1.77,1.94-3.82,3.7-5.11,1.7-1.22,3.54-2.19,5.49-2.94,1.54-.92,3-1.74,4.49-2.68,1.64-1.61,2.99-3.67,3.65-5.87-.13-.71-.25-1.41-.38-2.12-1.57-9.25-2.81-18.55-3.94-27.85-1.27-12.39-2.48-24.8-3.21-37.24-1.69,1.21-3.44,2.35-5.11,3.59-4.1,3.75-7.19,8.57-9.54,13.58-1.41,3.34-3.07,6.76-2.99,10.47-.11,3.38,.82,7-.82,10.11-1.4,2.09-4.44,1.64-6.1,.13-1.48-1.47-2.19-3.51-3.17-5.31-.52-1-.83-2.08-1.23-3.12-.21-.21-.33-.5-.27-.82,.06-.31,.22-.52,.43-.64,.95-3.47,4.65-5.54,7.3-7.71,3.21-2.79,5.45-6.5,7.91-9.92,.98-1.47,1.91-2.96,2.88-4.44,.38-.62,.89-1.54,1.65-1.42,2.5-2.88,5.84-4.82,8.93-7.03l-.07-1.28c-.29-9.08-.72-18.16-1.03-27.24-3.91,2.47-6.83,6.13-9.17,10.05,0-.13,0-.26,.01-.39,.03-.85,.04-1.71-.02-2.57,1.64-2.94,3.81-5.67,6.49-7.71,.64-.5,1.34-.92,1.95-1.47,.19-.22,.4-.48,.64-.71-.1-3.07-.18-6.14-.23-9.21,.1-9.24,1.15-18.43,2.51-27.57-1.83,2.18-3.77,4.26-5.65,6.38-1.35,1.66-2.94,3.77-2.26,6.02,.65,2.17,.69,3.73-1.41,5.04-2.62,1.62-5.66,3.47-8.86,2.98-1.52-.36-3.04-.74-4.5-1.27-1.95-.82-3.9-2.25-6.13-1.73-1.68,.46-3.1,1.36-4.86,1.27-2.82-.37-3.28-3.35-1.41-5.22,.88-1.02,2.13-1.61,3.38-2.06,1.91-.65,3.79-1.35,5.7-1.98,12.59-2.67,21.52-3.25,26.96-15.65,.21-1.31,.42-2.61,.63-3.91,.41-2.53,.83-5.04,1.26-7.55-.25,.52-.52,1.04-.82,1.54-2.7,4.82-6.42,8.91-10.6,12.48-1.77,1.31-3.85,2.19-5.72,3.37-1.87,1.01-3.95,1.55-5.93,2.27-2.2,.46-4.32,.58-6.47,1.22-2.22,.4-4.79,.55-5.83,2.88-1.38,1.92-2.28,4.33-4.37,5.62-.64,1.29-2.33,1.39-3.53,.95-1.2-.33-2.66-1.5-1.85-2.84-.43-.89-.45-2.01,.14-2.83,.25-.3,.52-.59,.71-.94,1.05-1.99,3.26-2.55,5.33-2.76,1.75-.29,3.43-.73,5.02-1.52,.3-.24,.73-.25,1.07-.09,1.77-.39,3.56-.69,5.28-1.16,2.07-.31,4.1-.47,6.03-1.34,3.03-.85,5.59-2.69,8.34-4.15,2.13-1.75,4.09-3.7,6-5.69,2.38-2.75,4.48-5.81,6.06-9.1,1.25-2.84,1.91-5.92,3.08-8.79,.92-4.9,1.91-9.78,3.03-14.68,.11-.76,.23-1.53,.34-2.29,.04-.23,.16-.42,.33-.55,.09-.38,.18-.76,.27-1.13,.35-1.6,.68-3.2,.99-4.81-.39,.41-.8,.82-1.18,1.24-3.17,3.82-7.15,4.97-11.8,6.03-1.62,.28-3.16,.78-4.37,1.94-.75,.6-1.63,2.04-2.65,1.08-.89-1,.46-1.89,1.12-2.54,3.65-3.46,9.36-2.29,13.51-4.85,1.85-1.06,3.41-2.58,5.02-3.93,.13-.17,.38-.35,.62-.53,.55-3.02,1.06-6.05,1.59-9.07,.61-3.78,1.54-7.51,2.25-11.28,.18-.02,.37-.05,.55-.07,.21-.03,.42-.07,.62-.12,.44-.1,.87-.21,1.3-.33-.12,1.28-.18,2.56-.05,3.82,.02-.1,.03-.16,.04-.25,0-.1,.08-.15,.16-.16,0,.09,0,.18,0,.27v.21c-.1,.18-.15,.36-.16,.56-.03,0-.07,0-.11-.03,.1,.78,.2,1.56,.37,2.33,.73,3.31,2.61,6.13,4.35,8.99,.37,.65,.82,1.24,1.27,1.83-.13,.25-.18,.54-.24,.82-1.72-.82-2.91-2.55-3.99-4.02-1.67-2.18-2.8-4.71-3.42-7.36-1.45,8.23-2.61,16.52-4.32,24.71,.38,1.58,.87,3.13,1.43,4.65,1.63,3.63,4.81,6.16,7.53,8.96,1.69,1.31,3.58,2.16,5.22,3.51,4.73,3.21,9.84,5.82,14.77,8.69,2.76,1.32,4.82,3.54,7.12,5.48,2.88,1.93,6.14,3.18,9.11,4.98,1.81,1.1,3.39,2.56,5,3.91,4.68,4.09,8.7,8.81,12.67,13.57,1.9,2.22,4.8,3.82,5.75,6.7,.72,2.06-.98,2.94-2.75,3.3-.87,.28-1.77,.59-2.7,.48-2.73-.29-5.42-.75-8.09-1.41-2.2-.46-3.89-2.19-4.74-4.21-.8-2.18-1.47-4.39-2.64-6.41-1.57-3.24-3.58-6.2-5.69-9.1-1.76-2.71-3.56-5.4-5.5-8-1.08-1.61-2.62-2.7-4.09-3.91-1.27-1.33-2.61-2.57-4.28-3.38-2.77-1.49-5.56-2.95-8.17-4.71-2.73-1.51-5.46-3.02-7.93-4.94-1.48-1.11-3.19-1.88-4.58-3.12-1.91-1.98-3.85-3.85-5.53-6.01-1.26-1.8-2.08-3.87-2.57-6.02-.17,.73-.32,1.46-.47,2.2-.37,2.88-.7,5.76-.89,8.67-.28,3.74-.89,8.07,1.47,11.3,1.77,2.39,3.87,4.54,5.58,6.98,.86,1.36,1.68,2.73,2.81,3.89,.89,1.04,1.38,2.38,2.51,3.2,3.32,2.66,7.52,4.31,10.22,7.68,.57,.81,1.48,1.74,1.16,2.81-.39,.91-.97,1.24-1.96,.96-.99-.22-1.98-.36-2.97-.51-.42-.08-.74-.44-.81-.85-2.3,.26-7.33,2.59-8.58-.18-.27-1.09,.66-2.03,1.3-2.8,.5-.7,1.54-1.46,1.27-2.39-.71-2.5-2.49-4.43-3.99-6.48-1.56-2.36-3.65-4.24-5.67-6.18-2-2.12-3.55-4.69-4.63-7.42-.37,2.45-.74,4.9-1.12,7.34-1.69,10.72-3.08,21.51-3.75,32.35-.42,11.13,.64,22.25,.98,33.37,.28,7.75,.7,15.5,1.26,23.23,.26,.57,.41,1.27,.66,1.72,.65,1.74,1.4,3.44,2.32,5.06,2.63,4.28,5.28,8.59,8.6,12.37,.09,.1,.19,.2,.28,.3,2.1,2.06,4.32,3.99,6.59,5.86,.1,.09,.2,.18,.31,.28,3.69,2.74,7.74,4.98,12.07,6.54,3.35,1.35,6.93,1.42,10.47,1.66,2.11,.22,4.4-.12,6.25,1.12,4.81,2.95,3.72,10.6-.06,14-1.82,1.22-3.24,3.85-5.6,3.78-.34,.02-.59-.1-.74-.26-5.24-1.21-7.71-6.87-10.21-11.18-1.38-2.39-3.36-4.38-5.15-6.45-2.31-2.84-5.29-4.95-8.07-7.29,0,0-.01,0-.02-.01-2.07-1.49-3.98-3.15-5.75-4.94-.15-.13-.3-.27-.44-.4-3.07-2.92-5.92-6.13-8.3-9.64-.83-1.17-1.7-2.29-2.49-3.44,.76,8.79,1.69,17.56,2.8,26.3,.09,.23,.19,.46,.31,.64,1.51,2.69,3.27,5.51,5.26,7.83,3.18,3.09,6.87,5.4,10.58,7.78,4.91,3.02,9.29,6.9,13.29,11.03,3.51,4.26,7.5,8.07,11.03,12.31,4,4.46,7.32,10.02,12.77,12.82,.57,.31,1.1,.68,1.64,1.05,1.36,1.7-1.54,2.75-2.86,2.04-4.23-1.6-6.56-5.76-9.34-9.05-2.11-2.56-3.81-5.4-5.93-7.89-.6-.71-1.83-1.1-1.91-2.12-2.8-2.71-5.18-5.8-7.83-8.65-2.73-2.7-5.65-5.21-8.66-7.59-7.73-5.18-13.58-8.11-17.73-15.61,.28,2.11,.57,4.22,.88,6.33,.94,6.26,2.04,12.49,3.14,18.72,0,0,0,0,.01,0,6.79,2.7,8.46,5.46,11.9,11.62,1.5,3.22,2.88,6.46,3.9,9.86,.92,3.43,2.45,6.59,5.12,8.98,.64,.23,1.16,1.03,1.09,1.71-.1,.68-.88,1.12-1.51,.81-1.8-1.57-3.52-3.39-4.64-5.53-1.5-2.69-2.07-5.75-3.13-8.61-2.01-5.15-4.09-10.65-8.01-14.66-1.38-1.26-3.02-2.09-4.54-3.11,2.06,11.61,4.12,23.22,5.25,34.97,.47,3.74,.92,7.48,1.39,11.22,.69-.22,1.35-.5,2.06-.71,2.6-.56,5.64-.58,7.98,.81,4.73,3.54,5.62,10.66,6.21,16.17,0,.29,0,.58-.01,.87,.02,.01,.04,.02,.05,.03,5.51,2.5,10.73,5.68,14.61,10.41,1.9,2.32,3.72,4.73,5.16,7.36,.46,.45,.58,1.21,.08,1.67-.4,.39-1.13,.41-1.51-.03-4.68-8.01-10.14-13.57-18.64-17.43-.62,3.39-2.13,6.66-2.02,10.09,.13,1.37-1.95,1.62-2.12,.22-.31-3.9,1.65-7.65,2.14-11.48-1.41-.83-2.84-1.64-4.39-2.19-2.51-.76-5.12-1.24-7.71-1.91,.13,.87,.27,1.73,.41,2.6,1.74,10.2,4.15,20.29,5.82,30.51,.37,2.31,.71,4.62,1.01,6.93,.71,.12,1.43,.25,2.12,.44,6.05,1.69,11.71,5.78,14.62,11.41,.84,1.91,1.39,3.93,1.88,5.95,.66,3.88,1.96,8.38-.84,11.71-.47,.73-1.13,1.93-2.15,1.3-.47-.3-.66-1-.32-1.48,.64-.95,1.37-1.87,1.82-2.94,.57-1.66,.09-3.4-.05-5.09-.2-1.55-.52-3.09-.91-4.6-1.27-6.39-6.45-11.1-12.17-13.74-1.2-.56-2.49-.96-3.78-1.31,.38,3.05,.71,6.1,1.01,9.16,.8,8.28,2.25,16.35,3.17,24.58,.13,1.53,.26,3.06,.4,4.58,4.12,2.23,8.02,5,11.42,8.21,4.1,4.49,6.78,10.31,7.33,16.37,.29,1.89,.91,3.69,1.41,5.53,.08,.27,.08,.54-.04,.8-.36,.84-1.71,.79-1.97-.1-.67-2.37-1.45-4.75-1.68-7.22,0,.04,.01,.09,.02,.13-.66-5.42-3.27-10.53-6.91-14.56-2.94-2.73-6.1-5.2-9.41-7.42,.41,4.28,.89,8.55,1.47,12.76,.26,6.34,.76,12.7,.51,19.04-.08,2.98-.17,5.99-.45,8.98,.19,.07,.36,.2,.5,.41,2.64,3.86,5.11,7.94,5.8,12.63,.38,1.87,1,3.79,.53,5.7-.03,.42-.23,.96-.74,.91-.71-.03-.68-.7-.54-1.21,.24-2.4-.89-4.63-1.34-6.94-.94-3.12-2.7-5.9-4.54-8.57-.42,3.05-1.1,6.04-2.21,8.93-1.06,2.72-2.59,5.22-4.32,7.57-.1,.14-.23,.26-.37,.35-.3,1.09-.52,2.22-.89,3.26-.94,4.1-2.15,8.23-4.63,11.69-.62,1.07-5.11,4.65-7.18,4.65-.43,0-.76-.16-.92-.53Zm6.82-174.32c-.52,.09-.99,.19-1.46,.24,.48,3.85,.99,7.69,1.57,11.53,.41,.08,.82,.19,1.2,.24,2.42,.6,4.97,.49,7.34,1.3,1.33,.42,2.6,1,3.83,1.65,0-.3-.03-.59-.07-.89-.95-4.96-1.58-13.49-7.95-14.08-.87-.09-1.7-.18-2.51-.18-.64,0-1.27,.05-1.94,.18Zm2.94-186.85c.15-.07,.31-.14,.46-.22-.06-.17-.07-.34-.03-.5-.05-.04-.1-.08-.14-.12-.09,.28-.18,.56-.28,.84Z"/><path class="t" d="M112.59,637.6h0s-.02,0-.03,0c0,0,.02,0,.03,0Z"/><path class="t" d="M111.16,633.18s-.01-.04-.02-.06h0c.15-.1,.31-.19,.47-.27,0,0,0,0,.01,0,.02,.01,.04,.03,.07,.04-.04,.02-.08,.04-.12,.07-.13,.08-.27,.16-.41,.24,0,0,0,0,0-.01Z"/><path class="t" d="M111.13,633.07h0s0,0,0,0h0Z"/><path class="t" d="M131.99,638.64c-.32-.07-.57-.33-.63-.65-.05-.24,.02-.46,.15-.64,.08-.52,.43-.94,.64-1.42,.06-.53,.54-.95,1.08-.91,.98,.08,1.15,1.3,.6,1.96,.06,.39-.22,.69-.49,.94-.37,.34-.8,.81-1.35,.71Z"/><path class="t" d="M132.56,637.55c-.69-.18-.37-.93-.2-1.39,.12-.32,.02-.62-.03-.94,0-.13,0-.25,.01-.36,.25-.02,.5-.06,.75-.12,.32-.08,.64-.17,.96-.22,.01,0,.02,0,.04,0,.06,.19,.05,.43-.04,.71-.29,.63-.71,1.19-.82,1.89-.05,.26-.3,.44-.56,.44-.04,0-.07,0-.11-.01Z"/><path class="t" d="M134.08,634.53s-.01,0-.02,0c0,0,.01,0,.02,0Z"/><path class="t" d="M119.72,716.6s-.06,0-.09-.01c-.5,.22-1.11-.07-1.53-.35-.34-.34-.14-1.04,.28-1.21,.05-.21,.16-.41,.33-.54,.04-.03,.08-.05,.12-.08,.12-1.06,1.73-1.28,2.03-.21,.08,.28,.14,.58,.14,.87,.69,.84-.35,2.07-1.29,1.52Z"/><path class="t" d="M91.98,666.64c.01-.36,.31-.63,.67-.63s.64,.32,.63,.67c-.01,.36-.31,.63-.67,.63s-.64-.32-.63-.67Z"/><path class="t" d="M85.89,670.26c-1.35-.53-2.7-1.16-3.42-2.45-.47-.85-.37-2.1,.6-2.53,1.93-.68,3.9,.35,5.84,.38,1.17,.1,5.54-1.46,5.84-.04-.05,.14-.21,.33-.36,.23-2.05,.42-3.86,1.74-5.99,1.78,.41,1.63-.73,3.3-2.52,2.65Z"/><path class="t" d="M71.53,636.93c-.62-.12-1.03-.68-1.42-1.13-.79-.64-1.04-1.8-.9-2.77,.19-.74,1.06-1.26,1.81-1.09,.4,.09,.59,.45,.96,.59,.59-.19,1.59,.13,1.24,.89,3.11-2.28,6.52-4.35,10.16-5.63,.88-.31,1.81-.22,2.72-.31,.02,.01,.03,.03,.05,.04,.27,.19,.56,.35,.87,.47,.29,.1,.59,.18,.88,.25l.05,.03c.17,.08,.34,.18,.5,.27,.11,.07,.23,.14,.34,.22,0,0,.02,.01,.02,.02-.69,.33-1.4,.6-2.15,.71-1.67,.04-3.45,.4-4.87,1.2-2.48,1.2-4.89,2.61-7.11,4.24-.99,.66-1.71,2-3.01,2-.05,0-.1,0-.15,0Zm.1-2.57s.08,.09,.12,.14c.04,.05,.09,.11,.13,.16,.09-.08,.18-.17,.26-.25,.06-.07,.11-.14,.17-.21-.21,.11-.45,.16-.69,.16Z"/><path class="t" d="M70.44,633.22c-.5,.02-.62-.75-.11-.86,.11-.02,.21,0,.31,.02,.13,.03,.27,.05,.41,0,3.16-.54,5.86-2.21,8.71-3.51,1.89-.81,3.88-1.42,5.9-1.81,.15,.16,.3,.33,.49,.46,.27,.19,.56,.35,.87,.47,.29,.1,.59,.18,.88,.25,.02,0,.03,.02,.05,.03,.17,.08,.34,.18,.5,.27,.05,.03,.1,.06,.14,.09-1.82,.43-4.15,.57-4.96,.99-3.95,.91-7.57,3.74-11.65,3.75-.51,0-1.03-.04-1.55-.14Z"/><path class="t" d="M67.54,814.76c-1.02-.5-1.93-1.5-2.36-2.57-.14-.69-.09-1.43,.03-2.12,.26-.85,1.12-1.49,1.7-2.09,1.9-1.34,3.43-2.93,5.24-4.21,2.46-2.02,4.97-4.23,6.44-7.11,.24-.47,.84-.65,1.32-.47,1.97,1-1.21,4.04-1.95,5.13-.54,.68-1.2,1.18-1.83,1.75-1.14,1.35-2.58,2.32-3.97,3.36-1.45,1.64-3.49,2.58-4.91,4.25-.04,.51-.18,1.02,.04,1.46,.18,.56,1.41,2.58,.25,2.61Z"/><path class="t" d="M78.97,798.37c-.87-.13,1.35-4.05,1.63-4.64,.48-.83,1.34-2.71,2.38-1.45,.22,.37,.13,.9-.24,1.14-.67,.75-1.3,1.53-1.93,2.31-.57,.79-1.22,1.49-1.52,2.39-.01,.15-.16,.27-.31,.25Z"/><path class="t" d="M78.76,798.51c-1.8-.16,2.31-6.32,2.86-7.1,1.86-3.03,4.41-5.58,7.19-7.73,1.47-1.02,2.94-2.05,4.34-3.17,.88-.76,2.1-1.25,2.72-2.25,1.06-1.35,2.53,.22,1.47,1.48-3.8,3.44-8.58,5.79-12,9.7-1.3,1.62-2.46,3.35-3.79,4.94-.89,1.1-1.8,2.22-2.15,3.58-.03,.33-.31,.59-.64,.55Z"/><path class="t" d="M50.26,774.11c.01-.32,.14-.58,.32-.83,.07-.1,.15-.2,.23-.29-1.01,.2-2.99,1.4-3.12-.39-.43-.09-.78-.4-.86-.85,0-.05-.01-.11-.02-.16-.38-.34-.43-.96-.18-1.38-.11-.11-.2-.25-.26-.4-1.24,.12-1.97-1.69-.91-2.38,1.1-.4,2.38-.28,3.54-.52,1.82-.09,3.58,.75,5.38,.8,.9-.04,2.09-.05,2.05,1.17-.09,1.1-1.3,1.02-2.12,.97,0,.21-.08,.42-.21,.59,.06,.26,.02,.54-.11,.76,.61,1.43-1.49,2.03-2.14,3.03-.14,1.03-1.65,.92-1.61-.14Z"/><path class="t" d="M85.54,758.6c-.67-.23-.81-.99-.56-1.58-.44-1.84,3.38-4.13,4.68-5.14,1.92-1.33,3.69-2.76,5.67-3.96,1.16-.52,2.06,1.11,1,1.81-3.01,2.29-6.51,4.11-9.1,6.86,.05,.38-.04,.89-.34,1.18-.02,.07-.04,.13-.05,.2,0,0,0,0,0,0-.17,.53-.78,.81-1.3,.63Z"/></svg>